<?xml version="1.0" encoding="utf-8"?>
<!-- Generator: Adobe Illustrator 26.3.1, SVG Export Plug-In . SVG Version: 6.00 Build 0)  -->
<svg version="1.1" id="Layer_1" xmlns="http://www.w3.org/2000/svg" xmlns:xlink="http://www.w3.org/1999/xlink" x="0px" y="0px"
	 viewBox="0 0 500 217.5" style="enable-background:new 0 0 500 217.5;" xml:space="preserve">
<style type="text/css">
	.st0{fill:#FFFFFF;}
	.st1{fill:#BFA28C;}
	.st2{fill:#93745F;}
	.st3{fill:#AF8E77;}
	.st4{fill:#662059;}
	.st5{fill:#FB5956;}
	.st6{fill:#F4C95E;}
	.st7{fill:#631C4D;}
	.st8{fill:#56B2AD;}
	.st9{fill:#2D9693;}
	.st10{fill-rule:evenodd;clip-rule:evenodd;fill:#FFFFFF;}
	.st11{fill:#DD7045;}
	.st12{fill:#FB8D5C;}
	.st13{fill:none;}
	.st14{fill:#C93E4F;}
	.st15{fill:#CEA045;}
	.st16{fill:#F2DDD7;}
	.st17{fill:none;stroke:#662059;stroke-width:2.45;stroke-miterlimit:10;}
	.st18{fill:none;stroke:#662059;stroke-width:1.45;stroke-miterlimit:10;}
</style>
<polygon class="st0" points="147.9,83.9 121.2,90.4 119.7,81.8 141.9,76.1 "/>
<path class="st0" d="M49.5,53.7c0,2.3-1.8,4.1-4.1,4.1s-4.1-1.8-4.1-4.1s1.8-4.1,4.1-4.1c1,0,5.4-2.1,6.3-1.3S49.5,52.5,49.5,53.7z"
	/>
<path class="st1" d="M320.2,76.7c0,4.3-3.5,7.9-7.9,7.9s-7.9-3.5-7.9-7.9h8.5"/>
<polygon class="st2" points="401.7,86.4 400.8,150.8 396.2,150.8 391.1,116.4 "/>
<path class="st2" d="M325.1,108.8h30.4c0,0-5.6,16.7-21.7,16.7v25.3h-5.2l-3.5-32.4C325.1,118.4,325.1,108.8,325.1,108.8z"/>
<path class="st3" d="M374.5,21.9h22.1c3.1,0,6.1,0.9,8.8,2.4c2.7,1.6,5.7,2.4,8.8,2.4h4.4v6.7c0,0-8.6,1-11.4,1.6
	c-3.6,0.8-5.4,5.1-4,8.6c3,7.7,7.3,21.4,5.9,36.1c-2.1,22.5-16,27.1-16,27.1l-7.9,44.2h-5.8l1.5-42h-39.6c0,0-8.6,10-21.4,10v32
	h-5.8l-1.3-30.8c-0.2-4.2,1.2-8.4,4-11.7c2.6-3.1,4-6.9,4-10.9v-4.8c0-8.8,7.1-16,15.9-16h40.9c2.4,0,4.5-1.8,4.9-4.2l7.4-50
	L374.5,21.9"/>
<path class="st4" d="M359.6,77.9c-0.7,0-1.2-0.6-1.2-1.2s0.5-1.2,1.2-1.2h18.2c1.8,0,3.4-1.4,3.6-3.2l7.6-49.8
	c0.1-0.7,0.7-1.1,1.4-1c0.7,0.1,1.1,0.7,1,1.4l-7.6,49.8c-0.5,3-3,5.2-6,5.2L359.6,77.9"/>
<path class="st4" d="M350.8,77.9c-0.7,0-1.2-0.6-1.2-1.2s0.5-1.2,1.2-1.2h1.9c0.7,0,1.2,0.6,1.2,1.2s-0.5,1.2-1.2,1.2H350.8"/>
<path class="st4" d="M402.2,44c-0.1-0.4,0-0.9,0.3-1.2c0.3-0.3,0.7-0.5,1.1-0.3c0.4,0.1,0.8,0.4,0.9,0.8c2.5,7.8,6.1,22.2,6.2,30.4
	c0,1.9-0.1,3.9-0.3,5.9c-1.1,11.5-5.2,18.6-9.1,22.7c-2.1,2.4-4.8,4.2-7.7,5.4l-0.4-1.2l1.2,0.2l-7.9,44.2c-0.1,0.6-0.6,1-1.2,1
	h-5.8c-0.7,0-1.2-0.6-1.2-1.2l1.5-40.7h-38.4v-1.2l0.9,0.8c-1.9,2-3.9,3.7-6.2,5.2c-4.7,3.3-10.3,5.1-16.1,5.2v-1.2h1.2v32
	c0,0.7-0.5,1.2-1.2,1.2h-5.8c-0.7,0-1.2-0.5-1.2-1.2l-1.3-30.8v-0.8c0-4.3,1.5-8.4,4.3-11.7c2.4-2.8,3.7-6.4,3.7-10.1v-4.9
	c0-9.5,7.7-17.2,17.1-17.2l12,0.1c0.7,0,1.2,0.5,1.2,1.2s-0.5,1.2-1.2,1.2l-12-0.1c-8.1,0-14.7,6.6-14.7,14.7v4.9
	c0,4.3-1.5,8.4-4.3,11.7c-2.4,2.8-3.7,6.4-3.7,10.1v0.7l1.2,29.6h3.4v-30.8c0-0.7,0.5-1.2,1.2-1.2c5.1-0.1,10.2-1.7,14.4-4.6
	c2.2-1.4,4.2-3.1,6.1-5c0.2-0.3,0.5-0.4,0.9-0.4h39.7c0.7,0,1.2,0.5,1.2,1.2l-1.5,40.7h3.5l7.7-43.2c0.1-0.4,0.4-0.8,0.8-0.9
	l0.1,0.2l-0.1-0.2l0.1,0.2l-0.1-0.2h0.1l0.4-0.2c0.5-0.2,1-0.5,1.5-0.8c1.8-1.1,3.3-2.3,4.7-3.8c3.6-3.8,7.5-10.3,8.5-21.2
	c0.2-1.9,0.2-3.8,0.2-5.7c-0.1-7.9-1.4-15.8-3.8-23.3"/>
<path class="st4" d="M374.6,23L374.6,23c-0.7,0-1.2-0.5-1.2-1.2s0.5-1.2,1.2-1.2h22.1c3.3,0,6.5,0.9,9.4,2.5
	c2.5,1.5,5.3,2.2,8.2,2.2h4.4c0.7,0,1.2,0.5,1.2,1.2v6.7c0,0.6-0.5,1.2-1.1,1.2l-1.4,0.2l-3.2,0.4c-2.5,0.3-5.3,0.7-6.6,1
	c-1,0.2-2,0.9-2.6,1.8c-0.6,0.9-1,2-1,3.2c0,0.7,0.1,1.4,0.4,2.1c0.2,0.4,0.1,0.8-0.2,1.2c-0.3,0.3-0.7,0.5-1.1,0.5
	c-0.4-0.1-0.8-0.3-1-0.8c-0.4-1-0.6-1.9-0.6-3c0-1.6,0.5-3.2,1.4-4.5c1-1.4,2.4-2.3,4-2.7c1.5-0.3,4.3-0.7,6.8-1.1
	c2.5-0.3,4.6-0.6,4.6-0.6l0.1,1.2h-1.2v-5.5h-3.2c-3.3,0-6.5-0.9-9.4-2.5c-2.5-1.5-5.3-2.2-8.2-2.2L374.6,23L374.6,23L374.6,23z"/>
<path class="st4" d="M346.4,119.7c0.5-0.4,1.3-0.3,1.7,0.2c0.4,0.5,0.3,1.3-0.2,1.7c-4,3.4-9,5.2-14.2,5.2v-1.2h1.2v25.2
	c0,0.7-0.5,1.2-1.2,1.2h-5.2c-0.6,0-1.1-0.5-1.2-1.1l-3.5-32.4c-0.1-0.7,0.4-1.3,1.1-1.3c0.7-0.1,1.3,0.4,1.3,1.1l3.4,31.3h2.9
	v-24.1c0-0.7,0.5-1.2,1.2-1.2C338.4,124.3,342.8,122.7,346.4,119.7L346.4,119.7z"/>
<path class="st4" d="M354.3,108.3L354.3,108.3c0.2-0.6,0.9-1,1.5-0.8c0.6,0.2,1,0.9,0.8,1.5c-1,2.6-2.2,5-3.9,7.3
	c-0.4,0.5-1.1,0.7-1.7,0.3c-0.5-0.4-0.7-1.2-0.3-1.7C352.2,112.9,353.4,110.8,354.3,108.3L354.3,108.3L354.3,108.3z"/>
<path class="st4" d="M400.8,100.4L400.8,100.4c0-0.7,0.5-1.2,1.2-1.2s1.2,0.6,1.2,1.2l-0.9,50.3c0,0.7-0.5,1.2-1.2,1.2h-4.5
	c-0.6,0-1.1-0.4-1.2-1l-5.1-34.4c-0.1-0.4,0.1-0.9,0.5-1.1c0.4-0.3,0.8-0.3,1.2-0.2c0.4,0.2,0.7,0.5,0.8,1l4.9,33.4h2.3L400.8,100.4
	L400.8,100.4L400.8,100.4z"/>
<path class="st4" d="M397.6,20.9L397.6,20.9c0,0.7-0.5,1.2-1.2,1.2s-1.2-0.5-1.2-1.2v-2.8c0-3.6,2.9-6.5,6.5-6.5h16.7
	c2.2,0,4-1.8,4-4.1V1.2c0-0.7,0.5-1.2,1.2-1.2s1.2,0.6,1.2,1.2v6.4c0,1.7-0.7,3.4-1.9,4.6c-1.2,1.2-2.9,1.9-4.6,1.9h-16.7
	c-2.2,0-4,1.8-4,4L397.6,20.9L397.6,20.9z"/>
<path class="st4" d="M403,14.1L403,14.1c-0.7,0-1.2-0.6-1.2-1.2s0.5-1.2,1.2-1.2c1.6,0,3-1.3,3-3V4.7c0-0.7,0.5-1.2,1.2-1.2
	s1.2,0.5,1.2,1.2v3.9C408.4,11.6,406,14.1,403,14.1z"/>
<path class="st4" d="M411.4,14.1c-0.7,0-1.2-0.6-1.2-1.2s0.5-1.2,1.2-1.2c1.7,0,3-1.3,3-3V3c0-0.7,0.5-1.2,1.2-1.2s1.2,0.5,1.2,1.2
	v5.6C416.8,11.6,414.4,14.1,411.4,14.1z"/>
<path class="st4" d="M391.1,20.9L391.1,20.9c0,0.7-0.5,1.2-1.2,1.2s-1.2-0.5-1.2-1.2v-2.8c0-2.2-1.8-4-4-4h-16.8
	c-3.6,0-6.5-2.9-6.5-6.5V1.2c0-0.7,0.5-1.2,1.2-1.2s1.2,0.5,1.2,1.2v6.4c0,2.2,1.8,4,4,4h16.8c3.5,0,6.5,2.9,6.5,6.4V20.9z"/>
<path class="st4" d="M383.4,11.6L383.4,11.6c0.7,0,1.2,0.6,1.2,1.2s-0.5,1.2-1.2,1.2c-3,0-5.4-2.4-5.4-5.4V4.7
	c0-0.7,0.5-1.2,1.2-1.2s1.2,0.5,1.2,1.2v3.9C380.4,10.3,381.7,11.6,383.4,11.6z"/>
<path class="st4" d="M375,11.6L375,11.6c0.7,0,1.2,0.6,1.2,1.2s-0.5,1.2-1.2,1.2c-3,0-5.4-2.4-5.4-5.4V3c0-0.7,0.5-1.2,1.2-1.2
	S372,2.4,372,3v5.6c0,0.8,0.3,1.6,0.9,2.1S374.2,11.6,375,11.6L375,11.6z"/>
<path class="st4" d="M319,76.7L319,76.7c0-0.7,0.5-1.2,1.2-1.2s1.2,0.5,1.2,1.2c0,5-4.1,9.1-9.1,9.1s-9.1-4.1-9.1-9.1
	c0-0.7,0.5-1.2,1.2-1.2h15.6c0.7,0,1.2,0.5,1.2,1.2s-0.5,1.2-1.2,1.2h-15.6v-1.2h1.2c0,3.7,3,6.7,6.6,6.7S319,80.3,319,76.7
	L319,76.7z"/>
<path class="st5" d="M383.7,65.5l28,6.8c0,0,0.9,8.4-0.8,13.5l-28.4-12.7C382.5,73.1,383.7,65.5,383.7,65.5z"/>
<path class="st4" d="M395.9,80.4L395.9,80.4c-0.6-0.3-0.9-1-0.6-1.6c0.3-0.6,1-0.9,1.6-0.6l14.5,6.5l-0.5,1.1l-1.1-0.4
	c0.8-2.7,1.1-5.3,1-8.1c0-2.3-0.2-4.3-0.2-4.8v-0.1l1.2-0.1l-0.3,1.2l-26.8-6.6l-0.8,5.4l13.9,6.3c0.6,0.3,0.9,1,0.6,1.6
	c-0.3,0.6-1,0.9-1.6,0.6l-14.7-6.6c-0.5-0.2-0.8-0.7-0.7-1.3l1.1-7.6c0-0.3,0.2-0.6,0.5-0.8c0.3-0.2,0.6-0.2,1-0.2l28,6.8
	c0.5,0.1,0.9,0.5,0.9,1c0,0,0.2,2.2,0.2,5.1c0.1,3-0.3,6-1.1,8.9c-0.1,0.3-0.4,0.6-0.7,0.7c-0.3,0.1-0.6,0.1-1,0L395.9,80.4
	L395.9,80.4L395.9,80.4z"/>
<path class="st6" d="M425.2,91.9c0,0-3,4.4-11,7.3l-3.5-10.8c-0.6-1.8,0.1-3.7,1.7-4.7c1.6-1,3.6-0.8,5,0.5L425.2,91.9L425.2,91.9z"
	/>
<path class="st4" d="M419.6,95.2c0.5-0.4,1.3-0.2,1.7,0.3c0.4,0.6,0.2,1.3-0.4,1.7c-2,1.3-4.1,2.3-6.4,3.1c-0.3,0.1-0.6,0.1-0.9-0.1
	s-0.5-0.4-0.6-0.7l-3.5-10.8c-0.7-2.3,0.2-4.8,2.2-6.1c2-1.3,4.7-1,6.4,0.7l7.8,7.6c0.3,0.3,0.4,0.8,0.3,1.2
	c-0.1,0.4-0.4,0.8-0.9,0.9s-0.9,0-1.2-0.3l-7.8-7.6c-0.9-0.9-2.4-1.1-3.5-0.4s-1.6,2-1.2,3.3l3.5,10.8l-1.2,0.4l-0.4-1.1
	C415.8,97.4,417.7,96.4,419.6,95.2"/>
<path class="st5" d="M415,26.1c0-2,1.6-3.6,3.6-3.6s3.6,1.6,3.6,3.6s-1.6,3.6-3.6,3.6S415,28.1,415,26.1z"/>
<path class="st4" d="M418.7,21.2c0.7,0,1.2,0.5,1.2,1.2s-0.5,1.2-1.2,1.2c-1.4,0-2.4,1.1-2.4,2.4s1.1,2.4,2.4,2.4s2.4-1.1,2.4-2.4
	c0-0.7,0.5-1.2,1.2-1.2s1.2,0.5,1.2,1.2c0,2.7-2.2,4.9-4.8,4.9s-4.9-2.2-4.9-4.9S416,21.3,418.7,21.2L418.7,21.2z"/>
<path class="st4" d="M310,152.2c-0.7,0-1.2-0.5-1.2-1.2s0.5-1.2,1.2-1.2h50.1c0.7,0,1.2,0.5,1.2,1.2s-0.5,1.2-1.2,1.2H310"/>
<path class="st4" d="M396.6,152.2c-0.7,0-1.2-0.5-1.2-1.2s0.5-1.2,1.2-1.2h8.9c0.7,0,1.2,0.5,1.2,1.2s-0.5,1.2-1.2,1.2H396.6"/>
<path class="st4" d="M299.3,152.2c-0.7,0-1.2-0.5-1.2-1.2s0.5-1.2,1.2-1.2h2.8c0.7,0,1.2,0.5,1.2,1.2s-0.5,1.2-1.2,1.2H299.3"/>
<path class="st4" d="M411.2,152.2c-0.7,0-1.2-0.5-1.2-1.2s0.5-1.2,1.2-1.2h2.8c0.7,0,1.2,0.5,1.2,1.2s-0.5,1.2-1.2,1.2H411.2"/>
<rect x="46.4" y="197" class="st3" width="5.7" height="7.7"/>
<rect x="104.7" y="197" class="st3" width="5.7" height="7.7"/>
<rect x="163" y="197" class="st3" width="5.7" height="7.7"/>
<path class="st0" d="M146.7,84l5.1-1.8c0,0-1.8,4.4-4.2,5.1c0,0,3.9,1,6.1-1.4c0,0-1.3,11.4-17.3,3.7l-2.3,1.8l1.1,6.8
	c0,0-10.6,9.9,7.4,17.5c0,0-0.4,13.5,5.3,15.6l-0.2,0.3c-0.5,0.9-0.2,2.1,0.7,2.6c0.9,0.6,2.1,0.3,2.7-0.5l1.6-2.6
	c0,0,4.1,7.8-5.2,8.4c-5.2,0.5-10.3-2.2-12.7-6.8l-1.1,2.6c0,0-11.9-6.5-12.4-23.3l-2.5,0.6l1.1-10.4c-2-0.7-3.8-1.7-5.5-3
	c0,0,4-0.4,4.9-1.6l2-7C121.2,90.4,135.2,88.6,146.7,84L146.7,84z"/>
<path class="st1" d="M285.6,94.7c0,4.3-3.5,7.9-7.9,7.9s-7.9-3.5-7.9-7.9h8.4"/>
<polygon class="st2" points="367,104.4 366.1,168.8 361.6,168.8 356.5,134.4 "/>
<path class="st2" d="M290.4,136.4v-9.6h30.4c0,0-5.6,16.7-21.7,16.7v25.3h-5.2L290.4,136.4L290.4,136.4z"/>
<path class="st3" d="M339.8,39.9h22.1c3.1,0,6.1,0.8,8.8,2.4c2.7,1.6,5.7,2.4,8.8,2.4h4.4v6.7c0,0-8.6,1-11.4,1.6
	c-3.6,0.8-5.4,5.1-4,8.6c3.1,7.7,7.3,21.4,5.9,36.1c-2.1,22.5-16,27.1-16,27.1l-7.9,44.2h-5.8l1.5-42h-39.6c0,0-8.7,10-21.4,10v32
	h-5.8l-1.3-30.8c-0.2-4.2,1.2-8.4,4-11.6c2.6-3.1,4-6.9,4-10.9v-4.8c0-8.8,7.1-16,15.9-16H343c2.4,0,4.5-1.8,4.8-4.2l7.4-50
	L339.8,39.9"/>
<path class="st4" d="M312.3,95.9c-0.7,0-1.2-0.6-1.2-1.2s0.5-1.2,1.2-1.2h30.9c1.8,0,3.4-1.4,3.6-3.2l7.5-50c0.1-0.7,0.7-1.1,1.4-1
	c0.7,0.1,1.1,0.7,1,1.4l-7.6,50.1c-0.5,3-3,5.2-6,5.2L312.3,95.9"/>
<path class="st4" d="M367.5,61.8c-0.2-0.7,0.1-1.3,0.8-1.5c0.6-0.2,1.3,0.2,1.5,0.8c2.5,7.8,6.1,22.4,6.2,30.6
	c0,1.9-0.1,3.9-0.3,5.9c-1.1,11.5-5.2,18.5-9.1,22.7c-2.1,2.4-4.8,4.2-7.7,5.4l-0.4-1.1l1.2,0.2l-7.9,44.2c-0.1,0.6-0.6,1-1.2,1
	h-5.8c-0.7,0-1.2-0.5-1.2-1.2l1.5-40.7h-38.4v-1.2l0.9,0.8c-1.9,2-3.9,3.7-6.1,5.2c-4.8,3.3-10.4,5.1-16.1,5.2v-1.2h1.2v32.1
	c0,0.7-0.5,1.2-1.2,1.2h-5.8c-0.7,0-1.2-0.6-1.2-1.2l-1.3-30.8v-0.8c0-4.3,1.5-8.5,4.3-11.7c2.4-2.8,3.7-6.4,3.7-10.1v-4.8
	c0-4.6,1.8-8.9,5-12.2s7.6-5.1,12.1-5.1l10,0c0.7,0,1.2,0.6,1.2,1.2s-0.5,1.2-1.2,1.2l-10,0c-8.1,0-14.7,6.6-14.7,14.7v4.8
	c0,4.3-1.5,8.4-4.3,11.7c-2.4,2.8-3.7,6.4-3.7,10.2v0.7l1.2,29.6h3.4v-30.8c0-0.7,0.5-1.2,1.2-1.2c5.1-0.1,10.2-1.7,14.4-4.6
	c2.2-1.4,4.2-3.1,6-5c0.2-0.3,0.5-0.4,0.9-0.4h39.6c0.7,0,1.2,0.5,1.2,1.2l-1.5,40.7h3.5l7.7-43.2c0.1-0.4,0.4-0.8,0.8-0.9l0.1,0.2
	l-0.1-0.2l0.1,0.2l-0.1-0.2h0.1l0.4-0.2c0.5-0.2,1-0.5,1.5-0.8c1.8-1.1,3.3-2.3,4.7-3.8c3.6-3.8,7.5-10.3,8.5-21.2
	c0.2-1.9,0.2-3.8,0.2-5.7c0-7.9-1.3-15.8-3.7-23.3"/>
<path class="st4" d="M339.9,41L339.9,41c-0.7,0-1.2-0.5-1.2-1.2s0.5-1.2,1.2-1.2H362c3.3,0,6.5,0.9,9.4,2.5c2.5,1.5,5.3,2.2,8.2,2.2
	h4.4c0.7,0,1.2,0.5,1.2,1.2v6.7c0,0.6-0.5,1.2-1.1,1.2l-1.4,0.2l-3.2,0.4c-2.5,0.3-5.3,0.7-6.6,1c-1,0.2-2,0.9-2.6,1.8
	c-0.6,0.9-1,2-1,3.2c0,0.7,0.1,1.4,0.4,2c0.2,0.6-0.1,1.3-0.7,1.6c-0.6,0.2-1.3,0-1.6-0.7c-0.4-1-0.6-1.9-0.6-3
	c0-1.6,0.5-3.2,1.4-4.5c1-1.4,2.4-2.3,4-2.7c1.5-0.3,4.3-0.7,6.8-1.1c2.5-0.3,4.6-0.6,4.6-0.6l0.1,1.2h-1.2v-5.5h-3.1
	c-3.3,0-6.5-0.9-9.4-2.5c-2.5-1.5-5.3-2.2-8.2-2.2L339.9,41L339.9,41L339.9,41z"/>
<path class="st4" d="M316.3,132.8L316.3,132.8c0.4-0.3,0.7-0.3,1.1-0.2c0.4,0.1,0.7,0.5,0.8,0.9c0.1,0.4-0.1,0.8-0.4,1.1
	c-3.8,4.1-13.5,10.1-18.8,10.1v-1.2h1.2v25.3c0,0.7-0.5,1.2-1.2,1.2h-5.2c-0.6,0-1.1-0.5-1.2-1.1l-3.5-32.4c0-0.4,0.1-0.9,0.5-1.1
	c0.4-0.2,0.8-0.3,1.2-0.1c0.4,0.2,0.7,0.6,0.7,1l3.4,31.3h2.9v-24.1c0-0.7,0.5-1.2,1.2-1.2c4.6,0,14.7-6.3,17.1-9.5L316.3,132.8
	L316.3,132.8z"/>
<path class="st4" d="M319.6,126.3L319.6,126.3c0.2-0.6,0.9-1,1.5-0.8c0.6,0.2,1,0.9,0.8,1.5c-1,2.6-2.2,5-3.9,7.3
	c-0.2,0.4-0.7,0.5-1.1,0.5c-0.4-0.1-0.8-0.3-1-0.7c-0.2-0.4-0.1-0.9,0.1-1.2C317.6,130.9,318.7,128.8,319.6,126.3L319.6,126.3
	L319.6,126.3z"/>
<path class="st4" d="M366.1,118.4c0-0.7,0.5-1.2,1.2-1.2s1.2,0.5,1.2,1.2l-0.9,50.3c0,0.7-0.5,1.2-1.2,1.2h-4.5
	c-0.6,0-1.1-0.4-1.2-1l-5.1-34.4c-0.1-0.7,0.4-1.3,1-1.4c0.7-0.1,1.3,0.4,1.4,1l4.9,33.4h2.4L366.1,118.4L366.1,118.4z"/>
<path class="st4" d="M363,38.9L363,38.9c0,0.7-0.5,1.2-1.2,1.2s-1.2-0.5-1.2-1.2v-2.8c0-3.6,2.9-6.5,6.5-6.5h16.7c2.2,0,4-1.8,4-4
	v-6.4c0-0.7,0.5-1.2,1.2-1.2s1.2,0.5,1.2,1.2v6.4c0,3.6-2.9,6.5-6.5,6.5H367c-2.2,0-4,1.8-4,4L363,38.9L363,38.9L363,38.9z"/>
<path class="st4" d="M368.4,32.1L368.4,32.1c-0.7,0-1.2-0.5-1.2-1.2s0.5-1.2,1.2-1.2c1.6,0,3-1.4,3-3v-4c0-0.7,0.5-1.2,1.2-1.2
	s1.2,0.5,1.2,1.2v4C373.8,29.6,371.3,32.1,368.4,32.1L368.4,32.1z"/>
<path class="st4" d="M376.8,32.1L376.8,32.1c-0.7,0-1.2-0.5-1.2-1.2s0.5-1.2,1.2-1.2c1.6,0,3-1.4,3-3v-5.6c0-0.7,0.5-1.2,1.2-1.2
	s1.2,0.5,1.2,1.2v5.6c0,1.4-0.6,2.8-1.6,3.8C379.6,31.5,378.2,32.1,376.8,32.1L376.8,32.1z"/>
<path class="st4" d="M356.5,38.9L356.5,38.9c0,0.7-0.5,1.2-1.2,1.2s-1.2-0.5-1.2-1.2v-2.8c0-2.2-1.8-4-4-4h-16.7
	c-3.6,0-6.5-2.9-6.5-6.5v-6.4c0-0.7,0.5-1.2,1.2-1.2s1.2,0.5,1.2,1.2v6.4c0,2.2,1.8,4,4,4.1h16.8c3.6,0,6.5,2.9,6.5,6.5L356.5,38.9
	L356.5,38.9L356.5,38.9z"/>
<path class="st4" d="M348.7,29.6L348.7,29.6c0.7,0,1.2,0.5,1.2,1.2s-0.5,1.2-1.2,1.2c-3,0-5.4-2.4-5.4-5.4v-4c0-0.7,0.5-1.2,1.2-1.2
	s1.2,0.5,1.2,1.2v4c0,0.8,0.3,1.5,0.9,2.1C347.2,29.3,347.9,29.6,348.7,29.6L348.7,29.6z"/>
<path class="st4" d="M340.3,29.6L340.3,29.6c0.7,0,1.2,0.5,1.2,1.2s-0.5,1.2-1.2,1.2c-3,0-5.4-2.4-5.4-5.4v-5.6
	c0-0.7,0.5-1.2,1.2-1.2s1.2,0.5,1.2,1.2v5.6C337.3,28.3,338.7,29.6,340.3,29.6L340.3,29.6z"/>
<path class="st4" d="M284.4,94.7L284.4,94.7c0-0.7,0.5-1.2,1.2-1.2s1.2,0.5,1.2,1.2c0,5-4.1,9.1-9.1,9.1s-9.1-4.1-9.1-9.1
	c0-0.7,0.5-1.2,1.2-1.2h15.7c0.7,0,1.2,0.5,1.2,1.2s-0.5,1.2-1.2,1.2h-15.7v-1.2h1.2c0,3.7,3,6.7,6.6,6.7S284.4,98.4,284.4,94.7
	L284.4,94.7z"/>
<path class="st5" d="M347.9,91.1l1.1-7.6l28,6.8c0,0,0.9,8.4-0.9,13.5L347.9,91.1"/>
<path class="st4" d="M361.2,98.4c-0.4-0.2-0.7-0.6-0.7-1c0-0.4,0.1-0.8,0.5-1.1c0.4-0.2,0.8-0.3,1.2-0.1l14.5,6.5l-0.5,1.1l-1.1-0.4
	c0.7-2.7,1.1-5.3,1-8.1c0-2.3-0.2-4.3-0.2-4.8v-0.1l1.2-0.1l-0.3,1.2L350,85l-0.8,5.4l13.5,6c0.6,0.3,0.9,1,0.6,1.6
	c-0.3,0.6-1,0.9-1.6,0.6l-14.4-6.4c-0.5-0.2-0.8-0.7-0.7-1.3l1.1-7.6c0.1-0.3,0.2-0.6,0.5-0.8c0.3-0.2,0.6-0.2,1-0.2l28,6.8
	c0.5,0.1,0.9,0.5,0.9,1c0,0,0.2,2.2,0.2,5.1c0.1,3-0.3,6-1.1,8.9c-0.1,0.3-0.3,0.6-0.7,0.7c-0.3,0.1-0.6,0.1-1,0L361.2,98.4"/>
<path class="st6" d="M390.5,109.9c0,0-3,4.4-11,7.3l-3.5-10.8c-0.6-2,0.3-4.1,2.2-5c1.5-0.7,3.3-0.3,4.5,0.8L390.5,109.9"/>
<path class="st4" d="M385,113.3c0.4-0.3,0.9-0.3,1.2-0.1s0.6,0.6,0.7,1.1c0,0.4-0.2,0.9-0.6,1.1c-2,1.3-4.1,2.3-6.3,3.1
	c-0.3,0.1-0.6,0.1-1-0.1c-0.3-0.2-0.5-0.4-0.6-0.7l-3.5-10.8c-0.8-2.6,0.4-5.4,2.9-6.4c0.2-0.1,0.3-0.1,0.5-0.1v1.2l-0.5-1.1
	c2-0.9,4.3-0.4,5.8,1.1l7.8,7.6c0.3,0.3,0.4,0.8,0.3,1.2c-0.1,0.4-0.4,0.8-0.9,0.9s-0.9,0-1.2-0.3l-7.8-7.6c-0.8-0.8-2.1-1-3.1-0.6
	c-0.1,0.1-0.3,0.1-0.5,0.1v-1.2l0.5,1.1c-1.3,0.6-2,2.1-1.6,3.5l3.5,10.8l-1.2,0.4l-0.4-1.1C381.1,115.4,383.1,114.4,385,113.3"/>
<path class="st5" d="M380.4,44.1c0-2,1.6-3.6,3.6-3.6s3.6,1.6,3.6,3.6s-1.6,3.6-3.6,3.6S380.4,46.1,380.4,44.1z"/>
<path class="st4" d="M384,39.3c0.7,0,1.2,0.5,1.2,1.2s-0.5,1.2-1.2,1.2c-1.3,0-2.4,1.1-2.4,2.4s1.1,2.4,2.4,2.4s2.4-1.1,2.4-2.4
	c0-0.7,0.5-1.2,1.2-1.2s1.2,0.5,1.2,1.2c0,2.7-2.2,4.8-4.9,4.8s-4.8-2.2-4.8-4.8S381.4,39.3,384,39.3L384,39.3z"/>
<path class="st7" d="M378.5,96.6c0,1.1-0.1,2.3-0.2,3.5l-0.5,0.2c-0.8,0.3-1.4,0.8-2,1.5C376,99.8,377,97.9,378.5,96.6"/>
<path class="st4" d="M275.3,170.2c-0.7,0-1.2-0.5-1.2-1.2s0.5-1.2,1.2-1.2h50.2c0.7,0,1.2,0.5,1.2,1.2s-0.5,1.2-1.2,1.2H275.3"/>
<path class="st4" d="M361.9,170.2c-0.7,0-1.2-0.5-1.2-1.2s0.5-1.2,1.2-1.2h8.9c0.7,0,1.2,0.5,1.2,1.2s-0.5,1.2-1.2,1.2H361.9"/>
<path class="st4" d="M264.7,170.2c-0.7,0-1.2-0.5-1.2-1.2s0.5-1.2,1.2-1.2h2.8c0.7,0,1.2,0.5,1.2,1.2s-0.5,1.2-1.2,1.2H264.7"/>
<path class="st4" d="M376.5,170.2c-0.7,0-1.2-0.5-1.2-1.2s0.5-1.2,1.2-1.2h2.8c0.7,0,1.2,0.5,1.2,1.2s-0.5,1.2-1.2,1.2H376.5"/>
<path class="st1" d="M393.9,108.3c0,4.3-3.5,7.9-7.9,7.9s-7.9-3.5-7.9-7.9h8.4"/>
<polygon class="st2" points="475.3,118.1 474.4,182.4 469.8,182.4 464.8,148 "/>
<path class="st2" d="M398.6,140.4H429c0,0-5.6,16.7-21.7,16.7v25.2h-5.2l-3.5-32.4L398.6,140.4L398.6,140.4z"/>
<path class="st3" d="M448.1,53.5h22.1c3.1,0,6.1,0.8,8.8,2.4c2.7,1.6,5.7,2.4,8.8,2.4h4.4v6.7c0,0-8.6,1-11.4,1.6
	c-3.6,0.8-5.4,5.1-4,8.6c3,7.7,7.2,21.4,5.9,36.1c-2.1,22.5-16,27.1-16,27.1l-7.9,44.2H453l1.5-42H415c0,0-8.7,10-21.4,10v32h-5.8
	l-1.3-30.8c-0.2-4.2,1.2-8.4,4-11.7c2.6-3.1,4-6.9,4-10.9v-4.8c0-8.8,7.1-16,15.9-16h40.9c2.4,0,4.5-1.8,4.8-4.2l7.4-50L448.1,53.5"
	/>
<path class="st4" d="M433.8,105.7L433.8,105.7c-0.7,0-1.2-0.5-1.2-1.2s0.5-1.2,1.2-1.2h18.2c1.8,0,3.4-1.4,3.6-3.2l6.8-45.8
	c0.1-0.7,0.7-1.2,1.4-1c0.7,0.1,1.1,0.7,1,1.4l-6.8,45.7c-0.4,3-3,5.2-6,5.2L433.8,105.7L433.8,105.7z"/>
<path class="st4" d="M424.4,109.5c-0.7,0-1.2-0.5-1.2-1.2s0.5-1.2,1.2-1.2h1.9c0.7,0,1.2,0.5,1.2,1.2s-0.5,1.2-1.2,1.2H424.4"/>
<path class="st4" d="M478.1,82c-0.1-0.4,0-0.9,0.3-1.2s0.7-0.4,1.1-0.4c0.4,0.1,0.8,0.4,0.9,0.8c2.5,7.8,3.8,15.8,3.9,24
	c0,1.9-0.1,3.9-0.3,5.9c-1,11.5-5.2,18.5-9.1,22.7c-2.1,2.4-4.8,4.2-7.7,5.4l-0.4-1.1l1.2,0.2l-7.9,44.2c-0.1,0.6-0.6,1-1.2,1h-5.8
	c-0.7,0-1.2-0.5-1.2-1.2l1.5-40.7H415v-1.2l0.9,0.8c-1.9,2-3.9,3.7-6.1,5.2c-4.8,3.3-10.4,5.1-16.1,5.2v-1.2h1.2v32.1
	c0,0.7-0.5,1.2-1.2,1.2h-5.8c-0.7,0-1.2-0.6-1.2-1.2l-1.3-30.8V151c0-4.3,1.5-8.4,4.3-11.7l0.9,0.8h-1.2c0-0.3,0.1-0.6,0.3-0.8
	c2.4-2.8,3.7-6.4,3.7-10.2v-4.8c0-9.5,7.7-17.2,17.1-17.2h7.2c0.7,0,1.2,0.6,1.2,1.2s-0.5,1.2-1.2,1.2h-7.2
	c-8.1,0-14.7,6.6-14.7,14.7v4.8c0,4.3-1.5,8.4-4.3,11.7l-0.9-0.8h1.2c0,0.3-0.1,0.6-0.3,0.8c-2.4,2.8-3.7,6.4-3.7,10.2v0.7l1.2,29.6
	h3.4v-30.8c0-0.7,0.5-1.2,1.2-1.2c5.1-0.1,10.2-1.7,14.4-4.6c2.2-1.4,4.2-3.1,6-5c0.2-0.3,0.5-0.4,0.9-0.4h39.7
	c0.7,0,1.2,0.5,1.2,1.2l-1.5,40.7h3.5l7.7-43.2c0.1-0.4,0.4-0.8,0.8-0.9l0.1,0.2l-0.1-0.2l0.1,0.2l-0.1-0.2h0.1l0.4-0.2
	c0.5-0.2,1-0.5,1.5-0.8c1.8-1.1,3.4-2.3,4.7-3.8c3.6-3.8,7.5-10.3,8.5-21.3c0.2-1.9,0.2-3.8,0.2-5.7C481.8,97.4,480.5,89.5,478.1,82
	"/>
<path class="st4" d="M448.2,54.6c-0.7,0-1.2-0.5-1.2-1.2s0.5-1.2,1.2-1.2h22.1c3.3,0,6.5,0.9,9.4,2.5c2.5,1.5,5.3,2.2,8.2,2.2h4.4
	c0.7,0,1.2,0.5,1.2,1.2v6.7c0,0.6-0.5,1.2-1.1,1.2l-1.4,0.2l-3.2,0.4c-2.5,0.3-5.3,0.7-6.6,1c-1,0.2-2,0.9-2.6,1.8
	c-0.6,0.9-1,2-1,3.1c0,0.7,2.4,8,2.7,8.6c0.2,0.6-0.1,1.3-0.7,1.6s-1.3-0.1-1.6-0.7c-0.4-0.9-2.9-8.5-2.9-9.5c0-1.6,0.5-3.2,1.4-4.5
	c1-1.4,2.4-2.4,4-2.7c1.5-0.3,4.3-0.8,6.8-1.1c2.5-0.3,4.6-0.6,4.6-0.6l0.1,1.2h-1.2v-5.5h-3.1c-3.3,0-6.5-0.9-9.4-2.5
	c-2.5-1.5-5.3-2.2-8.2-2.2L448.2,54.6"/>
<path class="st4" d="M420,151.3L420,151.3c0.5-0.4,1.3-0.4,1.7,0.1c0.4,0.5,0.4,1.3-0.1,1.7c-4,3.4-9,5.2-14.2,5.1v-1.2h1.2v25.3
	c0,0.7-0.5,1.2-1.2,1.2h-5.2c-0.6,0-1.1-0.4-1.2-1.1l-3.5-32.4c0-0.4,0.1-0.9,0.5-1.1c0.4-0.2,0.8-0.3,1.2-0.1
	c0.4,0.2,0.7,0.6,0.7,1l3.4,31.3h2.9v-24.1c0-0.7,0.5-1.2,1.2-1.2C412,155.9,416.5,154.3,420,151.3L420,151.3L420,151.3z"/>
<path class="st4" d="M427.9,140L427.9,140c0.2-0.6,0.9-1,1.5-0.8c0.6,0.2,1,0.9,0.8,1.5c-1,2.6-2.2,5-3.9,7.3
	c-0.2,0.4-0.7,0.6-1.1,0.5c-0.4-0.1-0.8-0.3-1-0.7c-0.2-0.4-0.1-0.9,0.1-1.2C425.8,144.6,427,142.4,427.9,140L427.9,140L427.9,140z"
	/>
<path class="st4" d="M474.4,132.1L474.4,132.1c0-0.7,0.5-1.2,1.2-1.2s1.2,0.5,1.2,1.2l-0.9,50.3c0,0.7-0.5,1.2-1.2,1.2h-4.6
	c-0.6,0-1.1-0.4-1.2-1l-5.1-34.4c-0.1-0.7,0.4-1.3,1-1.4c0.7-0.1,1.3,0.4,1.4,1l4.9,33.4h2.3L474.4,132.1L474.4,132.1L474.4,132.1z"
	/>
<path class="st4" d="M471.3,52.5L471.3,52.5c0,0.7-0.5,1.2-1.2,1.2s-1.2-0.5-1.2-1.2v-2.8c0-3.6,2.9-6.5,6.5-6.5h16.8
	c2.2,0,4-1.8,4-4v-6.3c0-0.7,0.5-1.2,1.2-1.2s1.2,0.6,1.2,1.2v6.3c0,1.7-0.7,3.4-1.9,4.6c-1.2,1.2-2.9,1.9-4.6,1.9h-16.8
	c-1.1,0-2.1,0.4-2.9,1.2c-0.8,0.8-1.2,1.8-1.2,2.9L471.3,52.5L471.3,52.5L471.3,52.5z"/>
<path class="st4" d="M476.6,45.6c-0.7,0-1.2-0.5-1.2-1.2s0.5-1.2,1.2-1.2c1.6,0,3-1.3,3-3v-4c0-0.7,0.5-1.2,1.2-1.2s1.2,0.5,1.2,1.2
	v4C482,43.2,479.6,45.6,476.6,45.6L476.6,45.6z"/>
<path class="st4" d="M485,45.6L485,45.6c-0.7,0-1.2-0.5-1.2-1.2s0.5-1.2,1.2-1.2c1.6,0,3-1.3,3-2.9v-5.6c0-0.7,0.5-1.2,1.2-1.2
	s1.2,0.5,1.2,1.2v5.5C490.4,43.2,488,45.6,485,45.6L485,45.6z"/>
<path class="st4" d="M464.8,52.5L464.8,52.5c0,0.7-0.5,1.2-1.2,1.2s-1.2-0.5-1.2-1.2v-2.8c0-2.2-1.8-4-4-4h-16.8
	c-3.5,0-6.5-2.9-6.5-6.5v-6.3c0-0.7,0.5-1.2,1.2-1.2s1.2,0.6,1.2,1.2v6.3c0,2.2,1.8,4,4,4h16.8c1.7,0,3.4,0.7,4.6,1.9
	c1.2,1.2,1.9,2.9,1.9,4.6L464.8,52.5L464.8,52.5L464.8,52.5z"/>
<path class="st4" d="M457,43.2L457,43.2c0.7,0,1.2,0.5,1.2,1.2s-0.5,1.2-1.2,1.2c-3,0-5.4-2.4-5.4-5.4v-4c0-0.7,0.5-1.2,1.2-1.2
	s1.2,0.5,1.2,1.2v4C454,41.9,455.3,43.2,457,43.2L457,43.2z"/>
<path class="st4" d="M448.6,43.3L448.6,43.3c0.7,0,1.2,0.5,1.2,1.2s-0.5,1.2-1.2,1.2c-3,0-5.4-2.4-5.4-5.4v-5.6
	c0-0.7,0.5-1.2,1.2-1.2s1.2,0.5,1.2,1.2v5.5c0,0.8,0.3,1.5,0.9,2.1C447,42.9,447.8,43.2,448.6,43.3L448.6,43.3L448.6,43.3z"/>
<path class="st4" d="M392.7,108.3L392.7,108.3c0-0.7,0.5-1.2,1.2-1.2s1.2,0.5,1.2,1.2c0,5-4,9.1-9.1,9.1s-9.1-4.1-9.1-9.1
	c0-0.7,0.5-1.2,1.2-1.2l15.1,0.1c0.7,0,1.2,0.5,1.2,1.2s-0.5,1.2-1.2,1.2l-15.1-0.1v-1.2h1.2c0,3.7,3,6.7,6.7,6.7
	S392.7,112,392.7,108.3C392.7,108.3,392.7,108.3,392.7,108.3z"/>
<path class="st5" d="M456.2,104.7l1.1-7.6l28,6.8c0,0,0.9,8.4-0.8,13.5L456.2,104.7"/>
<path class="st4" d="M469.5,112L469.5,112c-0.6-0.3-0.9-1-0.6-1.6c0.3-0.6,1-0.9,1.6-0.6l14.5,6.5l-0.5,1.1l-1.1-0.4
	c0.7-2.7,1.1-5.3,1-8.1c0-2.3-0.2-4.3-0.2-4.8V104l1.2-0.1l-0.3,1.2l-26.7-6.5l-0.8,5.4l13.5,6.1c0.4,0.2,0.7,0.6,0.7,1
	c0,0.4-0.1,0.9-0.5,1.1c-0.4,0.2-0.8,0.3-1.2,0.1l-14.4-6.4c-0.5-0.2-0.8-0.8-0.7-1.3l1.1-7.6c0.1-0.3,0.2-0.6,0.5-0.8
	c0.3-0.2,0.6-0.2,1-0.2l28,6.8c0.5,0.1,0.9,0.5,0.9,1.1c0,0,0.2,2.2,0.2,5.1c0.1,3-0.3,6-1.1,8.9c-0.1,0.3-0.3,0.6-0.7,0.7
	c-0.3,0.1-0.6,0.1-1,0L469.5,112"/>
<path class="st6" d="M498.8,123.5c0,0-3,4.4-11,7.3l-3.5-10.8c-0.5-1.8,0.1-3.7,1.7-4.7c1.6-1,3.6-0.8,5,0.5L498.8,123.5"/>
<path class="st4" d="M493.2,126.8c0.6-0.3,1.3-0.2,1.6,0.4c0.4,0.6,0.2,1.3-0.3,1.7c-2,1.3-4.1,2.3-6.4,3.1c-0.3,0.1-0.6,0.1-1-0.1
	c-0.3-0.1-0.5-0.4-0.6-0.7l-3.5-10.8c-0.7-2.3,0.2-4.8,2.2-6.1c2-1.3,4.7-1,6.4,0.7l7.8,7.6c0.5,0.5,0.5,1.2,0,1.7
	c-0.5,0.5-1.2,0.5-1.7,0l-7.8-7.6c-0.9-0.9-2.4-1.1-3.5-0.4s-1.6,2-1.2,3.3l3.5,10.8l-1.2,0.4l-0.4-1.1
	C489.4,129,491.4,128,493.2,126.8"/>
<path class="st5" d="M488.7,57.7c0-2,1.6-3.6,3.6-3.6s3.6,1.6,3.6,3.6s-1.6,3.6-3.6,3.6S488.7,59.7,488.7,57.7z"/>
<path class="st4" d="M492.3,52.9c0.7,0,1.2,0.5,1.2,1.2s-0.5,1.2-1.2,1.2c-1.3,0-2.4,1.1-2.4,2.4s1.1,2.4,2.4,2.4s2.4-1.1,2.4-2.4
	c0-0.7,0.5-1.2,1.2-1.2s1.2,0.5,1.2,1.2c0,2.7-2.2,4.8-4.9,4.8s-4.8-2.2-4.8-4.8S489.6,52.9,492.3,52.9L492.3,52.9z"/>
<path class="st7" d="M486.8,110.3c0,1.1-0.1,2.3-0.2,3.5l-0.5,0.2c-0.8,0.3-1.4,0.8-2,1.5C484.2,113.4,485.2,111.6,486.8,110.3"/>
<path class="st7" d="M458.1,52.2c0.4,0.8,0.6,1.6,0.7,2.4h-10.6c-0.7,0-1.2-0.5-1.2-1.2s0.5-1.2,1.2-1.2L458.1,52.2"/>
<path class="st4" d="M383.6,183.8c-0.7,0-1.2-0.6-1.2-1.2s0.5-1.2,1.2-1.2h50.2c0.7,0,1.2,0.6,1.2,1.2s-0.5,1.2-1.2,1.2H383.6"/>
<path class="st4" d="M470.1,183.8c-0.7,0-1.2-0.6-1.2-1.2s0.5-1.2,1.2-1.2h8.9c0.7,0,1.2,0.6,1.2,1.2s-0.5,1.2-1.2,1.2H470.1"/>
<path class="st4" d="M373,183.8c-0.7,0-1.2-0.6-1.2-1.2s0.5-1.2,1.2-1.2h2.8c0.7,0,1.2,0.6,1.2,1.2s-0.5,1.2-1.2,1.2H373"/>
<path class="st4" d="M484.8,183.8c-0.7,0-1.2-0.6-1.2-1.2s0.5-1.2,1.2-1.2h2.8c0.7,0,1.2,0.6,1.2,1.2s-0.5,1.2-1.2,1.2H484.8"/>
<path class="st1" d="M351.5,142c0,4.4-3.5,7.9-7.9,7.9s-7.9-3.5-7.9-7.9h8.4"/>
<polygon class="st2" points="433,151.7 432.1,216.1 427.5,216.1 422.4,181.7 "/>
<path class="st2" d="M356.3,183.7v-9.6h30.4c0,0-5.6,16.7-21.7,16.7v25.3h-5.2L356.3,183.7L356.3,183.7z"/>
<path class="st3" d="M405.7,87.2h22.1c3.1,0,6.1,0.8,8.8,2.4c2.7,1.6,5.7,2.4,8.8,2.4h4.4v6.7c0,0-8.6,1-11.4,1.6
	c-3.6,0.8-5.4,5.1-4,8.6c3,7.7,7.3,21.4,5.9,36.1c-2.1,22.4-16,27-16,27l-7.9,44.2h-5.8l1.5-42h-39.7c0,0-8.7,10-21.4,10v32h-5.8
	l-1.3-30.8c-0.2-4.2,1.2-8.4,4-11.7c2.6-3.1,4-6.9,4-10.9v-4.9c0-8.8,7.1-16,15.9-16h40.9c2.4,0,4.5-1.8,4.8-4.2l7.4-50L405.7,87.2"
	/>
<path class="st4" d="M371.8,143.2c-0.7,0-1.2-0.5-1.2-1.2s0.5-1.2,1.2-1.2h37.2c1.8,0,3.4-1.4,3.6-3.2l7.3-49.5
	c0.1-0.7,0.7-1.1,1.4-1c0.7,0.1,1.1,0.7,1,1.4l-7.3,49.5c-0.5,3-3,5.2-6,5.2h-30.9"/>
<path class="st4" d="M435.8,115.7l-2.3-6.4c-0.1-0.4,0-0.9,0.3-1.2c0.3-0.3,0.7-0.5,1.1-0.4c0.4,0.1,0.8,0.4,0.9,0.8
	c2.5,7.8,6,22.2,6.1,30.3c0,1.9-0.1,3.9-0.3,5.9c-1,11.5-5.2,18.6-9.1,22.7c-2.1,2.4-4.8,4.2-7.7,5.4l-0.4-1.1l1.2,0.2l-7.9,44.2
	c-0.1,0.6-0.6,1-1.2,1h-5.8c-0.7,0-1.2-0.6-1.2-1.2l1.5-40.7h-38.4v-1.2l0.9,0.8c-1.8,2-3.9,3.7-6.1,5.2c-4.8,3.3-10.4,5.1-16.1,5.2
	v-1.2h1.2v32.1c0,0.7-0.5,1.2-1.2,1.2h-5.8c-0.7,0-1.2-0.5-1.2-1.2l-1.3-30.8v-0.8c0-4.3,1.5-8.4,4.3-11.7c2.4-2.8,3.7-6.4,3.7-10.1
	V158c0-9.5,7.7-17.2,17.1-17.2h3.3c0.7,0,1.2,0.5,1.2,1.2s-0.5,1.2-1.2,1.2h-3.3c-8.1,0-14.7,6.6-14.7,14.8v4.9
	c0,4.3-1.5,8.4-4.3,11.7c-2.4,2.8-3.7,6.4-3.7,10.1v0.7l1.2,29.6h3.4v-30.8c0-0.7,0.5-1.2,1.2-1.2c5.1-0.1,10.2-1.7,14.4-4.6
	c2.2-1.4,4.2-3.1,6-5c0.2-0.3,0.5-0.4,0.9-0.4h39.6c0.7,0,1.2,0.5,1.2,1.2l-1.5,40.7h3.5l7.7-43.2c0.1-0.4,0.4-0.8,0.8-0.9l0.1,0.2
	l-0.1-0.2l0.1,0.2l-0.1-0.2h0.1l0.4-0.2c0.5-0.2,1-0.5,1.5-0.8c1.8-1.1,3.3-2.3,4.7-3.8c3.6-3.8,7.5-10.3,8.5-21.2
	c0.2-1.9,0.2-3.8,0.2-5.7C439.4,131.1,438.2,123.3,435.8,115.7L435.8,115.7L435.8,115.7z"/>
<path class="st4" d="M405.9,88.3L405.9,88.3c-0.7,0-1.2-0.5-1.2-1.2s0.5-1.2,1.2-1.2H428c3.3,0,6.5,0.9,9.4,2.6
	c2.5,1.4,5.3,2.2,8.2,2.2h4.4c0.7,0,1.2,0.5,1.2,1.2v6.7c0,0.6-0.5,1.2-1.1,1.2l-1.4,0.2l-3.2,0.4c-2.5,0.3-5.3,0.7-6.6,1
	c-1,0.2-2,0.9-2.6,1.8c-0.6,0.9-1,2-1,3.1c0,0.7,0.1,1.4,0.4,2.1c0.2,0.6-0.1,1.3-0.7,1.6s-1.3-0.1-1.6-0.7c-0.4-0.9-0.6-1.9-0.6-3
	c0-1.6,0.5-3.2,1.4-4.6c1-1.4,2.4-2.3,4-2.7c1.5-0.3,4.3-0.8,6.8-1.1c2.5-0.3,4.6-0.6,4.6-0.6l0.1,1.2h-1.2v-5.4h-3.1
	c-3.3,0-6.5-0.9-9.4-2.6c-2.5-1.4-5.3-2.2-8.2-2.2L405.9,88.3L405.9,88.3z"/>
<path class="st4" d="M377.7,185L377.7,185c0.5-0.4,1.3-0.4,1.7,0.1c0.4,0.5,0.4,1.3-0.1,1.7c-4,3.4-9,5.2-14.2,5.1v-1.2h1.2v25.3
	c0,0.7-0.5,1.2-1.2,1.2h-5.2c-0.6,0-1.1-0.5-1.2-1.1l-3.5-32.4c-0.1-0.7,0.4-1.3,1.1-1.4c0.7-0.1,1.3,0.4,1.4,1.1l3.4,31.3h2.9
	v-24.1c0-0.7,0.5-1.2,1.2-1.2C369.7,189.6,374.2,188,377.7,185L377.7,185L377.7,185z"/>
<path class="st4" d="M385.6,173.7L385.6,173.7c0.2-0.6,0.9-1,1.5-0.8c0.6,0.2,1,0.9,0.8,1.5c-1,2.6-2.2,5-3.9,7.3
	c-0.4,0.6-1.1,0.7-1.7,0.3c-0.5-0.4-0.7-1.1-0.3-1.7C383.5,178.3,384.7,176.1,385.6,173.7L385.6,173.7L385.6,173.7z"/>
<path class="st4" d="M432.1,165.8c0-0.7,0.5-1.2,1.2-1.2s1.2,0.6,1.2,1.2l-0.9,50.4c0,0.7-0.5,1.2-1.2,1.2h-4.5
	c-0.6,0-1.1-0.4-1.2-1l-5.1-34.4c-0.1-0.7,0.4-1.3,1-1.4c0.7-0.1,1.3,0.4,1.4,1l4.9,33.4h2.4L432.1,165.8L432.1,165.8z"/>
<path class="st4" d="M428.9,86.2L428.9,86.2c0,0.7-0.5,1.2-1.2,1.2s-1.2-0.6-1.2-1.2v-2.8c0-3.6,2.9-6.5,6.5-6.5h16.8
	c2.2,0,4-1.8,4-4v-6.4c0-0.7,0.5-1.2,1.2-1.2s1.2,0.6,1.2,1.2v6.4c0,3.6-2.9,6.4-6.5,6.4H433c-2.2,0-4,1.8-4,4.1L428.9,86.2
	L428.9,86.2L428.9,86.2z"/>
<path class="st4" d="M434.3,79.3c-0.7,0-1.2-0.5-1.2-1.2s0.5-1.2,1.2-1.2c0.8,0,1.5-0.3,2.1-0.9c0.5-0.6,0.9-1.3,0.9-2.1V70
	c0-0.7,0.5-1.2,1.2-1.2s1.2,0.5,1.2,1.2v3.9C439.7,76.9,437.3,79.3,434.3,79.3L434.3,79.3z"/>
<path class="st4" d="M442.7,79.3c-0.7,0-1.2-0.5-1.2-1.2s0.5-1.2,1.2-1.2c1.6,0,3-1.3,3-3v-5.6c0-0.7,0.5-1.2,1.2-1.2
	s1.2,0.6,1.2,1.2v5.6c0,1.4-0.6,2.8-1.6,3.8C445.5,78.8,444.1,79.3,442.7,79.3L442.7,79.3z"/>
<path class="st4" d="M422.4,86.2L422.4,86.2c0,0.7-0.5,1.2-1.2,1.2s-1.2-0.6-1.2-1.2v-2.8c0-2.2-1.8-4-4-4.1h-16.7
	c-1.7,0-3.4-0.7-4.6-1.9c-1.2-1.2-1.9-2.9-1.9-4.6v-6.4c0-0.7,0.5-1.2,1.2-1.2s1.2,0.6,1.2,1.2v6.4c0,2.2,1.8,4,4,4H416
	c3.6,0,6.5,2.9,6.5,6.5L422.4,86.2L422.4,86.2L422.4,86.2z"/>
<path class="st4" d="M414.6,76.9c0.7,0,1.2,0.6,1.2,1.2s-0.5,1.2-1.2,1.2c-3,0-5.4-2.4-5.4-5.4V70c0-0.7,0.5-1.2,1.2-1.2
	s1.2,0.5,1.2,1.2v3.9c0,0.8,0.3,1.6,0.9,2.1C413.1,76.6,413.9,76.9,414.6,76.9L414.6,76.9z"/>
<path class="st4" d="M406.3,76.9c0.7,0,1.2,0.6,1.2,1.2s-0.5,1.2-1.2,1.2c-1.4,0-2.8-0.6-3.8-1.6c-1-1-1.6-2.4-1.6-3.8v-5.6
	c0-0.7,0.5-1.2,1.2-1.2s1.2,0.6,1.2,1.2v5.6c0,0.8,0.3,1.6,0.9,2.1C404.7,76.6,405.5,76.9,406.3,76.9L406.3,76.9z"/>
<path class="st4" d="M350.3,142L350.3,142c0-0.7,0.5-1.2,1.2-1.2s1.2,0.6,1.2,1.2c0,5-4.1,9.1-9.1,9.1s-9.1-4.1-9.1-9.1
	c0-0.7,0.5-1.2,1.2-1.2h15.6c0.7,0,1.2,0.6,1.2,1.2s-0.5,1.2-1.2,1.2h-15.6V142h1.2c0,3.7,3,6.7,6.6,6.7S350.3,145.6,350.3,142
	L350.3,142z"/>
<path class="st5" d="M413.8,138.4l1.1-7.6l28,6.8c0,0,0.9,8.4-0.9,13.5L413.8,138.4"/>
<path class="st4" d="M427.2,145.7c-0.4-0.2-0.7-0.6-0.7-1c0-0.4,0.1-0.9,0.5-1.1c0.4-0.3,0.8-0.3,1.2-0.1l14.5,6.5l-0.5,1.1
	l-1.1-0.4c0.7-2.6,1.1-5.4,1-8.1c0-2.3-0.2-4.3-0.2-4.8v-0.1l1.2-0.1l-0.3,1.2l-26.8-6.5l-0.8,5.4l13.2,5.9c0.4,0.2,0.7,0.6,0.7,1
	c0,0.4-0.1,0.9-0.5,1.1s-0.8,0.3-1.2,0.1l-14-6.3c-0.5-0.2-0.8-0.8-0.7-1.3l1.1-7.6c0.1-0.4,0.2-0.6,0.5-0.8c0.3-0.2,0.6-0.2,1-0.2
	l28,6.8c0.5,0.1,0.9,0.5,0.9,1.1c0,0,0.2,2.2,0.2,5.1c0.1,3-0.3,6-1.1,8.9c-0.1,0.3-0.4,0.6-0.7,0.7c-0.3,0.1-0.6,0.1-1,0
	L427.2,145.7"/>
<path class="st6" d="M456.4,157.2c0,0-3,4.4-11,7.3l-3.5-10.8c-0.5-1.8,0.2-3.7,1.7-4.7c1.6-1,3.6-0.8,5,0.5L456.4,157.2"/>
<path class="st4" d="M450.9,160.5L450.9,160.5c0.4-0.3,0.9-0.3,1.2-0.1s0.7,0.6,0.7,1.1c0,0.4-0.2,0.9-0.6,1.1
	c-2,1.3-4.1,2.3-6.4,3.1c-0.3,0.1-0.6,0.1-0.9-0.1c-0.3-0.1-0.5-0.4-0.6-0.7l-3.5-10.8c-0.7-2.3,0.2-4.8,2.2-6.1s4.7-1,6.4,0.7
	l7.8,7.6c0.3,0.3,0.4,0.8,0.3,1.2c-0.1,0.4-0.4,0.8-0.9,0.9s-0.9,0-1.2-0.3l-7.8-7.6c-0.9-0.9-2.4-1.1-3.5-0.4
	c-1.1,0.7-1.6,2.1-1.2,3.3l3.5,10.8l-1.2,0.4l-0.4-1.1C447.1,162.6,449,161.7,450.9,160.5"/>
<path class="st5" d="M446.3,91.4c0-2,1.6-3.6,3.6-3.6s3.6,1.6,3.6,3.6s-1.6,3.6-3.6,3.6S446.3,93.4,446.3,91.4z"/>
<path class="st4" d="M449.9,86.5c0.7,0,1.2,0.6,1.2,1.2s-0.5,1.2-1.2,1.2c-1.3,0-2.4,1.1-2.4,2.4s1.1,2.4,2.4,2.4s2.4-1.1,2.4-2.4
	c0-0.7,0.5-1.2,1.2-1.2s1.2,0.6,1.2,1.2c0,2.7-2.2,4.8-4.9,4.8s-4.8-2.2-4.8-4.8S447.3,86.6,449.9,86.5L449.9,86.5z"/>
<path class="st7" d="M444.4,143.9c0,1.1-0.1,2.3-0.3,3.5l-0.5,0.2c-0.8,0.4-1.4,0.9-2,1.5C441.9,147.1,442.9,145.2,444.4,143.9"/>
<path class="st4" d="M341.3,217.5c-0.7,0-1.2-0.6-1.2-1.2s0.5-1.2,1.2-1.2h50.1c0.7,0,1.2,0.6,1.2,1.2s-0.5,1.2-1.2,1.2H341.3"/>
<path class="st4" d="M427.8,217.5c-0.7,0-1.2-0.6-1.2-1.2s0.5-1.2,1.2-1.2h8.9c0.7,0,1.2,0.6,1.2,1.2s-0.5,1.2-1.2,1.2H427.8"/>
<path class="st4" d="M330.6,217.5c-0.7,0-1.2-0.6-1.2-1.2s0.5-1.2,1.2-1.2h2.8c0.7,0,1.2,0.6,1.2,1.2s-0.5,1.2-1.2,1.2H330.6"/>
<path class="st4" d="M442.5,217.5c-0.7,0-1.2-0.6-1.2-1.2s0.5-1.2,1.2-1.2h2.8c0.7,0,1.2,0.6,1.2,1.2s-0.5,1.2-1.2,1.2H442.5"/>
<path class="st5" d="M97.2,139.1c-1.3-13.6,12.4-22.9,12.4-22.9c2-2.8,5.4-4.3,8.9-3.6l2.5-0.6c0.5,16.8,12.4,23.3,12.4,23.3
	l1.1-2.6c2.4,4.7,7.5,7.4,12.7,6.9c1.2,3.4,1.9,6.9,2.1,10.4l8.5-0.4L160,160l-10.6,2.1c3.4,11.1-19.7,26.8-19.7,26.8"/>
<rect x="55.8" y="86" transform="matrix(0.1681 -0.9858 0.9858 0.1681 -32.9495 166.225)" class="st8" width="52.4" height="33.3"/>
<polygon class="st9" points="47,123.2 55.8,71.6 70.1,74 61.2,125.7 "/>
<path class="st4" d="M61,126.9L61,126.9c-0.4-0.1-0.8-0.4-0.9-0.8s-0.1-0.9,0.2-1.2c0.3-0.3,0.7-0.5,1.2-0.4l32.2,5.5l8.4-49.3
	l-32.1-5.5c-0.7-0.1-1.1-0.8-1-1.4c0.1-0.7,0.8-1.1,1.4-1l33.3,5.7c0.7,0.1,1.1,0.7,1,1.4l-8.9,51.8c-0.1,0.6-0.7,1.1-1.4,1
	L61,126.9L61,126.9L61,126.9z"/>
<path class="st4" d="M46.8,124.5L46.8,124.5c-0.7-0.1-1.1-0.8-1-1.4c0.1-0.7,0.8-1.1,1.4-1l12.9,2.2l1.7-9.9c0.1-0.7,0.8-1.1,1.4-1
	c0.7,0.1,1.1,0.8,1,1.4l-1.9,11c-0.1,0.7-0.7,1.1-1.4,1L46.8,124.5L46.8,124.5z"/>
<path class="st4" d="M64.6,112.2L64.6,112.2c-0.1,0.5-0.4,0.8-0.8,1c-0.4,0.2-0.9,0.1-1.2-0.2c-0.3-0.3-0.5-0.7-0.4-1.2L68.7,75
	l-11.8-2L55,83.7c-0.1,0.7-0.8,1.1-1.4,1s-1.1-0.8-1-1.4l2-11.9c0.1-0.7,0.7-1.1,1.4-1l14.2,2.4c0.7,0.1,1.1,0.7,1,1.4L64.6,112.2
	L64.6,112.2L64.6,112.2z"/>
<path class="st4" d="M97,78.6L97,78.6c-0.1,0.7-0.7,1.1-1.4,1c-0.7-0.1-1.1-0.7-1-1.4c0.7-2.9-0.3-6-2.5-7.9c-2.3-2-5.4-2.5-8.2-1.4
	c-2.8,1.1-4.7,3.7-5,6.7c-0.1,0.4-0.4,0.8-0.8,0.9c-0.4,0.2-0.9,0.1-1.2-0.2s-0.5-0.7-0.4-1.2c0.6-3.7,3.2-6.8,6.7-8.1
	c3.5-1.3,7.4-0.6,10.3,1.8C96.2,71.2,97.6,74.9,97,78.6L97,78.6z"/>
<path class="st4" d="M84,76.4L84,76.4c-0.1,0.4-0.4,0.8-0.8,0.9c-0.4,0.2-0.9,0.1-1.2-0.2c-0.3-0.3-0.5-0.7-0.4-1.2
	c0.7-2.9-0.3-6-2.5-7.9s-5.4-2.5-8.2-1.4c-2.8,1.1-4.7,3.7-5,6.7c-0.1,0.4-0.4,0.8-0.8,0.9c-0.4,0.2-0.9,0.1-1.2-0.2
	c-0.3-0.3-0.5-0.7-0.4-1.2c1-5.7,6.4-9.5,12.1-8.6C81.2,65.3,85,70.7,84,76.4L84,76.4z"/>
<path class="st10" d="M83.3,112.7c-0.1,0.7,0.3,1.3,1,1.4c0.7,0.1,1.3-0.3,1.4-1l0.6-3.6c0.1-0.7-0.3-1.3-1-1.4
	c-0.7-0.1-1.3,0.3-1.4,1L83.3,112.7L83.3,112.7z M81.8,121.1c0.1-0.7,0.8-1.1,1.4-1c0.7,0.1,1.1,0.8,1,1.4l-0.2,1
	c-0.1,0.4-0.4,0.8-0.8,0.9c-0.4,0.2-0.9,0.1-1.2-0.2c-0.3-0.3-0.5-0.7-0.4-1.2L81.8,121.1L81.8,121.1z"/>
<polygon class="st11" points="2.2,60.1 11.7,58.4 18,93.8 8.4,95.5 "/>
<rect x="14.7" y="56.2" transform="matrix(0.9847 -0.1742 0.1742 0.9847 -12.5098 5.7073)" class="st12" width="23.2" height="36"/>
<path class="st4" d="M18.2,95.1L18.2,95.1c-0.4,0.1-0.9-0.1-1.1-0.4c-0.3-0.3-0.4-0.8-0.2-1.2c0.1-0.4,0.5-0.7,1-0.8l21.6-3.8
	l-5.8-33l-21.6,3.8c-0.7,0.1-1.3-0.3-1.4-1s0.3-1.3,1-1.4l22.8-4c0.3,0,0.6,0,0.9,0.2c0.3,0.2,0.4,0.5,0.5,0.8L42,89.6
	c0,0.3,0,0.6-0.2,0.9c-0.2,0.3-0.5,0.4-0.8,0.5L18.2,95.1L18.2,95.1L18.2,95.1z"/>
<path class="st4" d="M16.6,79.1L16.6,79.1c0.1,0.7-0.3,1.3-1,1.4c-0.7,0.1-1.3-0.3-1.4-1l-3.5-19.6l-8.1,1.5l6.9,32.2l7-0.7
	l-1.1-6.3c-0.1-0.4,0.1-0.9,0.4-1.2c0.3-0.3,0.8-0.3,1.2-0.2c0.4,0.2,0.7,0.5,0.8,0.9l1.3,7.6c0,0.3,0,0.7-0.2,0.9S18.5,95,18.2,95
	L8.8,96c-0.6,0.1-1.2-0.3-1.3-0.9L0,60.6c-0.1-0.3,0-0.7,0.2-0.9c0.2-0.3,0.4-0.5,0.8-0.5l10.6-1.9c0.3,0,0.6,0,0.9,0.2
	c0.3,0.2,0.4,0.5,0.5,0.8L16.6,79.1L16.6,79.1L16.6,79.1z"/>
<path class="st4" d="M25.9,55.9L25.9,55.9c0.1,0.7-0.3,1.3-1,1.4c-0.7,0.1-1.3-0.3-1.4-1c-0.2-1.9-1.5-3.5-3.2-4.2
	c-1.8-0.7-3.8-0.3-5.2,0.9c-1.4,1.2-2.1,3.2-1.6,5c0.1,0.4-0.1,0.9-0.4,1.2c-0.3,0.3-0.8,0.4-1.2,0.2c-0.4-0.2-0.7-0.5-0.8-1
	c-0.6-2.7,0.4-5.5,2.4-7.3c2.1-1.8,5-2.3,7.6-1.3C23.6,50.9,25.5,53.2,25.9,55.9L25.9,55.9L25.9,55.9z"/>
<path class="st0" d="M31.2,80.3c-0.1-0.7,0.3-1.3,1-1.4c0.7-0.1,1.3,0.3,1.4,1l0.8,4.4c0.1,0.4-0.1,0.9-0.4,1.2
	c-0.3,0.3-0.8,0.3-1.2,0.2c-0.4-0.2-0.7-0.5-0.8-0.9L31.2,80.3"/>
<path class="st8" d="M87.9,133.5c-5.5-3.3-7.3-10.5-4-16c3.3-5.5,10.5-7.3,16-3.9c5.5,3.3,7.3,10.5,4,16
	C100.6,135,93.4,136.8,87.9,133.5z"/>
<path class="st4" d="M93.3,136.4L93.3,136.4c-0.7,0-1.2-0.6-1.2-1.3s0.6-1.2,1.3-1.2h0.5c5.2,0,9.6-3.8,10.4-9
	c0.7-5.2-2.5-10.1-7.5-11.5c-5-1.4-10.3,1.1-12.4,5.9c-2.1,4.8-0.3,10.4,4.2,13.1c0.5,0.4,0.6,1,0.3,1.6c-0.3,0.5-0.9,0.8-1.5,0.5
	c-5.5-3.4-7.7-10.3-5.1-16.2c2.6-5.9,9.1-9,15.3-7.3c6.2,1.7,10.2,7.8,9.3,14.2c-0.9,6.4-6.3,11.1-12.8,11.1L93.3,136.4L93.3,136.4z
	"/>
<path class="st0" d="M99.8,128.6L99.8,128.6c-0.2,0.4-0.6,0.7-1.1,0.8c-0.5,0-0.9-0.2-1.1-0.7s-0.2-0.9,0.1-1.3
	c0.6-1,0.9-2.2,0.9-3.4c0-1.2-0.3-2.3-0.8-3.3c-0.3-0.6-0.1-1.3,0.4-1.7c0.6-0.3,1.3-0.2,1.7,0.4
	C101.5,122.4,101.4,125.8,99.8,128.6L99.8,128.6L99.8,128.6z"/>
<path class="st6" d="M105.9,113.8c0.1,0.3,0,0.7-0.2,1l-1.8,2.9l-10-6.1l1.8-2.9c0.2-0.3,0.5-0.5,0.8-0.6c0.3-0.1,0.7,0,1,0.2
	l7.8,4.7C105.6,113.2,105.8,113.5,105.9,113.8L105.9,113.8z"/>
<path class="st4" d="M104.6,114l-7.8-4.7h-0.1l-1.2,1.9l7.9,4.8l1.1-1.9L104.6,114l0.7-1l0.6-1.1c0.6,0.3,1,0.9,1.1,1.6
	c0.2,0.7,0.1,1.3-0.3,1.9l-1.8,2.9c-0.3,0.6-1.1,0.8-1.7,0.4l-10-6.1c-0.6-0.3-0.8-1.1-0.4-1.7l1.8-2.9c0.3-0.6,0.9-1,1.6-1.2
	c0.7-0.2,1.3-0.1,1.9,0.3l7.8,4.7l-0.6,1L104.6,114L104.6,114z"/>
<path class="st4" d="M105.5,112.7L105.5,112.7c-0.4,0.5-1.1,0.6-1.6,0.3c-0.5-0.3-0.8-0.9-0.5-1.5c0.5-0.7,0.5-1.6,0.1-2.3
	c-0.4-0.7-1.1-1.2-1.9-1.2s-1.6,0.4-1.9,1.2c-0.2,0.4-0.6,0.7-1.1,0.8c-0.5,0-0.9-0.2-1.1-0.7c-0.2-0.4-0.2-0.9,0.1-1.3
	c0.8-1.5,2.4-2.4,4.1-2.4c1.7,0,3.3,0.9,4.1,2.5C106.6,109.6,106.5,111.4,105.5,112.7C105.5,112.8,105.5,112.7,105.5,112.7z"/>
<path class="st4" d="M104.6,107.6c-0.1,0.4-0.5,0.7-0.9,0.8c-0.4,0.1-0.9,0-1.2-0.4c-0.3-0.3-0.4-0.8-0.3-1.2l1.9-6.1
	c0.2-0.6,0.9-1,1.5-0.8c0.7,0.2,1,0.9,0.8,1.5L104.6,107.6"/>
<path class="st4" d="M104.1,108.3c-0.4,0.3-0.9,0.3-1.3,0.1c-0.4-0.2-0.7-0.7-0.7-1.1c0-0.5,0.3-0.9,0.8-1.1l4-2.4
	c0.4-0.3,0.9-0.3,1.3-0.1c0.4,0.2,0.7,0.7,0.7,1.1c0,0.5-0.3,0.9-0.8,1.1L104.1,108.3"/>
<path class="st5" d="M71.6,116.8c0-6.4,5.2-11.7,11.7-11.7s11.7,5.2,11.7,11.7s-5.2,11.7-11.7,11.7S71.6,123.3,71.6,116.8z"/>
<path class="st4" d="M89.5,128.2L89.5,128.2c-0.4,0.2-0.8,0.2-1.2,0c-0.4-0.2-0.6-0.6-0.6-1.1s0.2-0.8,0.6-1.1c4.7-2.5,6.8-8,4.9-13
	c-1.9-4.9-7.1-7.7-12.2-6.4c-5.1,1.2-8.5,6.1-7.9,11.4s5,9.2,10.3,9.3c0.7,0,1.2,0.6,1.2,1.2c0,0.7-0.5,1.2-1.2,1.2
	c-6.5,0-12-4.8-12.8-11.3c-0.8-6.4,3.3-12.5,9.6-14.1c6.3-1.6,12.8,1.8,15.2,7.8C97.6,118.2,95.1,125.1,89.5,128.2L89.5,128.2
	L89.5,128.2z"/>
<path class="st0" d="M90.8,118.2L90.8,118.2c0,0.7-0.5,1.2-1.2,1.2s-1.2-0.6-1.2-1.2c0-2.4-1.3-4.6-3.4-5.8
	c-0.6-0.3-0.8-1.1-0.4-1.7c0.3-0.6,1.1-0.8,1.7-0.4C89.1,112,90.9,115,90.8,118.2C90.9,118.2,90.8,118.2,90.8,118.2z"/>
<path class="st6" d="M88.8,103.3v3.4H77.3v-3.4c0-0.7,0.6-1.3,1.3-1.3h9.1C88.3,102,88.8,102.6,88.8,103.3L88.8,103.3z"/>
<path class="st4" d="M87.6,103.2h-9.1l-0.1,0.1v2.2h9.2L87.6,103.2L87.6,103.2l-0.1-2.4c1.4,0,2.5,1.1,2.5,2.5v3.4
	c0,0.7-0.6,1.2-1.2,1.2H77.3c-0.7,0-1.2-0.5-1.2-1.2v-3.4c0-1.4,1.1-2.5,2.5-2.5h9.1C87.6,100.8,87.6,103.2,87.6,103.2z"/>
<path class="st4" d="M87.6,101.7L87.6,101.7c0,0.7-0.6,1.2-1.2,1.2s-1.2-0.6-1.2-1.2c0.1-0.8-0.3-1.6-1.1-2.1
	c-0.7-0.4-1.6-0.4-2.3,0c-0.7,0.4-1.1,1.2-1.1,2.1c0,0.7-0.6,1.2-1.2,1.2s-1.2-0.6-1.2-1.2c-0.1-1.7,0.8-3.3,2.2-4.2
	c1.5-0.9,3.3-0.9,4.8,0C86.8,98.3,87.7,100,87.6,101.7L87.6,101.7z"/>
<path class="st4" d="M84.3,97.7c0.1,0.6-0.3,1.2-0.9,1.4c-0.6,0.2-1.2-0.2-1.4-0.8L80.4,92c-0.1-0.6,0.3-1.2,0.9-1.4
	c0.6-0.2,1.2,0.2,1.4,0.8L84.3,97.7"/>
<path class="st4" d="M84.1,98.5c-0.2,0.4-0.6,0.7-1,0.7c-0.4,0-0.8-0.2-1.1-0.6s-0.2-0.8,0-1.2l2.2-4.2c0.2-0.4,0.6-0.7,1-0.7
	c0.4,0,0.9,0.2,1.1,0.6c0.2,0.4,0.2,0.8,0,1.2L84.1,98.5"/>
<path class="st0" d="M31.3,76.6c0,0,9-4.3,11.2-5.4l2.1-1.2l9,2.6c-2.5,2.5-5.2,4.6-8.3,6.3L31.3,76.6z"/>
<path class="st5" d="M55.4,58.8c-1.2-2.2-3.7-3.2-6-2.5l2.5-8.6C60.6,49,62.6,55,62.6,55L55.4,58.8"/>
<path class="st5" d="M29.5,82.5L29.5,82.5c-0.5-1-0.7-2.2-0.4-3.3c0.3-1.1,1.1-2.1,2.1-2.6l2.1-1.2l11.8,3.5l-9.8,5.3
	C33.3,85.4,30.7,84.6,29.5,82.5L29.5,82.5z"/>
<path class="st0" d="M51.4,64.8c1.3-1,2.7-1.9,4.1-2.7v-3.2l7.1-3.9c1,4,1,8.2-0.2,12.1L51.4,64.8"/>
<path class="st5" d="M43.7,69.8l7.5-4.1l2.1-1.2l9,2.6c-1.8,2.6-4.2,4.8-7,6.2L43.7,69.8L43.7,69.8z"/>
<path class="st0" d="M62.6,55c0.3,1.2,0.5,2.5,0.6,3.8c-1.7,0.5-3.6-0.1-4.6-1.5L62.6,55"/>
<path class="st4" d="M40.6,56.5L40.6,56.5c-0.2-0.4-0.2-0.8,0-1.2c0.2-0.4,0.6-0.6,1-0.6s0.8,0.2,1.1,0.6c0.4,0.7,1.1,1.3,1.9,1.5
	s1.7,0.2,2.4-0.3l1.5-0.8c1.3-0.7,2.8-0.9,4.2-0.5c1.4,0.4,2.6,1.4,3.3,2.7l-1.1,0.6v-1.2c0.5,0,0.8,0.2,1.1,0.6
	c1.5,2.7,0.5,6.1-2.2,7.6L31.9,77.6c-1,0.6-1.6,1.6-1.7,2.8c0,1.2,0.6,2.2,1.5,2.8c1,0.6,2.2,0.6,3.2,0.1l21.6-11.8
	c3.8-2,6.2-5.9,6.2-10.2s-2.1-8.3-5.8-10.5c-3.7-2.2-8.2-2.3-12-0.2l-1,0.5c-0.6,0.3-1.3,0.1-1.7-0.5c-0.3-0.6-0.1-1.3,0.5-1.7
	l1-0.6c7-3.8,15.7-1.2,19.5,5.7c3.8,7,1.2,15.7-5.7,19.5L36.1,85.4c-2.7,1.5-6.1,0.5-7.6-2.2C27,80.4,28,77,30.8,75.5l22.1-12.1
	c0.7-0.4,1.3-1.1,1.5-1.9c0.2-0.8,0.1-1.7-0.3-2.4l1.1-0.6v1.2c-0.5,0-0.8-0.2-1.1-0.6c-0.4-0.7-1.1-1.3-1.9-1.5
	c-0.8-0.2-1.7-0.1-2.4,0.3l-1.5,0.8c-1.3,0.7-2.8,0.9-4.3,0.5C42.5,58.7,41.3,57.8,40.6,56.5L40.6,56.5L40.6,56.5z"/>
<path class="st4" d="M33,76.6c-0.7-0.2-1-0.9-0.8-1.5c0.2-0.6,0.9-1,1.5-0.8l6.7,2c0.4,0.1,0.7,0.4,0.8,0.9c0.1,0.4,0,0.9-0.3,1.2
	s-0.8,0.4-1.2,0.3L33,76.6"/>
<path class="st4" d="M43.1,71.1c-0.7-0.2-1-0.8-0.8-1.5c0.2-0.7,0.8-1,1.5-0.8l11.8,3.5c0.7,0.2,1,0.8,0.8,1.5
	c-0.2,0.7-0.9,1-1.5,0.8L43.1,71.1"/>
<path class="st4" d="M54.2,65.9c-0.4-0.1-0.7-0.5-0.8-0.9c-0.1-0.4,0-0.9,0.3-1.2c0.3-0.3,0.8-0.4,1.2-0.3l7.9,2.3
	c0.4,0.1,0.7,0.5,0.8,0.9c0.1,0.4,0,0.9-0.3,1.2c-0.3,0.3-0.8,0.4-1.2,0.3l-5.2-1.5"/>
<path class="st4" d="M50.7,47.4c0.2-0.6,0.9-1,1.5-0.8c0.7,0.2,1,0.8,0.8,1.5l-2.5,8.6c-0.2,0.7-0.8,1-1.5,0.8
	c-0.6-0.2-1-0.8-0.8-1.5L50.7,47.4"/>
<path class="st4" d="M55.9,60c-0.4,0.2-0.8,0.2-1.2,0c-0.4-0.2-0.6-0.6-0.6-1.1s0.2-0.8,0.6-1l6.4-3.5c0.4-0.2,0.8-0.2,1.2,0
	c0.4,0.2,0.6,0.6,0.6,1.1s-0.2,0.8-0.6,1L55.9,60"/>
<line class="st13" x1="32.1" y1="72.3" x2="29.7" y2="71.8"/>
<path class="st4" d="M32.3,71.1c0.4,0.1,0.8,0.4,0.9,0.8c0.1,0.4,0,0.9-0.2,1.2c-0.3,0.3-0.7,0.5-1.2,0.4l-2.4-0.5
	c-0.4-0.1-0.8-0.4-0.9-0.8c-0.1-0.4,0-0.9,0.2-1.2c0.3-0.3,0.7-0.5,1.2-0.4L32.3,71.1"/>
<polygon class="st5" points="12.4,69.9 64.3,80.5 63,86.5 63,86.5 59.2,85.7 55.8,102.3 56,101.5 54.7,107.9 26.7,102.2 10.5,98.9 
	15,76.6 11.8,76 11.2,75.9 "/>
<path class="st5" d="M25.9,68.2c-0.5-2.8,0.7-5.7,3-7.3c2.4-1.6,5.5-1.5,7.8,0s3.5,4.5,3,7.3c0.6-2.8,2.8-5,5.6-5.5
	c2.8-0.5,5.7,0.7,7.2,3.1c1.6,2.4,1.5,5.5,0,7.9c-1.6,2.4-4.5,3.5-7.3,2.9l-6.9-1.4l-6.9-1.4C28.6,73.2,26.5,71,25.9,68.2L25.9,68.2
	z"/>
<rect x="23.4" y="77.1" transform="matrix(0.2004 -0.9797 0.9797 0.2004 -67.4443 96.9192)" class="st6" width="4.4" height="25.4"/>
<rect x="12" y="85.4" transform="matrix(0.2001 -0.9798 0.9798 0.2001 -64.994 95.6543)" class="st6" width="28.2" height="4.4"/>
<rect x="36.1" y="85.1" transform="matrix(0.1999 -0.9798 0.9798 0.1999 -54.8895 122.4012)" class="st14" width="22.8" height="19.4"/>
<polygon class="st14" points="44,82.6 45.3,76.5 64.3,80.4 63.1,86.5 "/>
<rect x="45.6" y="84.4" transform="matrix(0.2004 -0.9797 0.9797 0.2004 -54.1474 122.2938)" class="st15" width="4.4" height="19.8"/>
<path class="st4" d="M64.2,86.6c-0.1,0.3-0.2,0.6-0.5,0.8c-0.3,0.2-0.6,0.2-0.9,0.2l-2.6-0.5l-4.3,21.1c-0.1,0.3-0.2,0.6-0.5,0.8
	c-0.3,0.2-0.6,0.2-0.9,0.2l-44.2-9c-0.3-0.1-0.6-0.2-0.8-0.5c-0.2-0.3-0.2-0.6-0.2-0.9l4.3-21L11,77c-0.3-0.1-0.6-0.2-0.8-0.5
	C10,76.2,10,75.9,10,75.6l1.2-5.9c0.1-0.3,0.2-0.6,0.5-0.8c0.3-0.2,0.6-0.2,0.9-0.2l51.8,10.7c0.3,0.1,0.6,0.2,0.8,0.5
	c0.2,0.3,0.2,0.6,0.2,0.9L64.2,86.6L63,86.5l0.2-1.2L63,86.5l-1.2-0.2l1-4.8L13.3,71.4l-0.7,3.6l2.6,0.5c0.3,0.1,0.6,0.2,0.8,0.5
	c0.2,0.3,0.2,0.6,0.2,0.9l-4.2,21l41.8,8.6l4.3-21.1c0.1-0.3,0.2-0.6,0.5-0.8c0.3-0.2,0.6-0.2,0.9-0.2l3.8,0.8L63,86.5L64.2,86.6
	L64.2,86.6z"/>
<path class="st4" d="M24.7,65.3c0.5-3,2.6-5.4,5.5-6.4c2.8-1,6-0.3,8.2,1.7c2.2,2,3.2,5.1,2.5,8l-0.8,4.1l-0.6,2.8
	c-0.1,0.3-0.2,0.6-0.5,0.8c-0.3,0.2-0.6,0.2-0.9,0.2L31.2,75c-2.1-0.4-4.1-1.7-5.2-3.6C24.7,69.7,24.3,67.4,24.7,65.3l1.2,0.2
	l1.2,0.2c-0.3,1.5,0,3.1,0.9,4.4c0.9,1.3,2.2,2.2,3.7,2.5l6.9,1.4l-0.2,1.2L37.2,75l1.4-6.9c0.1-0.4,0.1-0.8,0.1-1.2
	c0-3-2.2-5.5-5.2-5.9s-5.7,1.8-6.3,4.7l-1.2-0.2L24.7,65.3L24.7,65.3z"/>
<path class="st4" d="M52.4,70.9c0.5-2.1-0.2-4.3-1.8-5.7c-1.6-1.4-3.8-1.9-5.8-1.2c-2,0.7-3.5,2.4-3.8,4.6l-0.8,4.1l-0.6,2.8
	l-1.2-0.2l0.2-1.2l6.9,1.4c1.5,0.3,3.1,0,4.4-0.8C51.2,73.7,52.1,72.4,52.4,70.9l1.2,0.2l1.2,0.2c-0.4,2.2-1.7,4-3.5,5.2
	c-1.8,1.2-4.1,1.6-6.2,1.2l-4.2-0.9l-2.7-0.5c-0.3-0.1-0.6-0.2-0.8-0.5c-0.2-0.3-0.2-0.6-0.2-0.9l1.4-6.9c0.5-3,2.6-5.4,5.5-6.4
	c2.8-1,6-0.3,8.2,1.7c2.2,2,3.2,5.1,2.5,8l-1.2-0.2L52.4,70.9L52.4,70.9z"/>
<path class="st0" d="M49.8,70.3c-0.4,1.8-2.1,2.9-3.8,2.5l-3.2-0.6l0.6-3.2c0.4-1.7,2.1-2.8,3.8-2.4C49,67,50.2,68.6,49.8,70.3
	L49.8,70.3z"/>
<path class="st4" d="M48.6,70.1c0-0.1,0-0.2,0-0.4c0-1-0.8-1.9-1.8-2c-1-0.1-2,0.6-2.2,1.6L44,72.5l-1.2-0.2l0.2-1.2l3.2,0.7
	c0.5,0.1,1.1,0,1.5-0.3C48.2,71.1,48.5,70.6,48.6,70.1l1.2,0.2l1.2,0.2c-0.5,2.4-2.8,4-5.2,3.5l-3.2-0.6c-0.3-0.1-0.6-0.2-0.8-0.5
	c-0.2-0.3-0.2-0.6-0.2-0.9l0.6-3.2c0.3-1.6,1.4-2.9,3-3.4c1.5-0.5,3.2-0.2,4.4,0.9c1.2,1.1,1.7,2.7,1.4,4.3l-1.2-0.2
	C49.9,70.3,48.6,70.1,48.6,70.1z"/>
<path class="st4" d="M13.4,86.2c-0.4-0.1-0.8-0.4-0.9-0.8c-0.1-0.4-0.1-0.9,0.2-1.2c0.3-0.3,0.7-0.5,1.2-0.4L24,85.9
	c0.4,0.1,0.8,0.4,0.9,0.8c0.1,0.4,0,0.9-0.2,1.2c-0.3,0.3-0.7,0.5-1.2,0.4L13.4,86.2"/>
<path class="st4" d="M12.5,90.5c-0.4-0.1-0.8-0.4-0.9-0.8c-0.1-0.4-0.1-0.9,0.2-1.2c0.3-0.3,0.7-0.5,1.2-0.4l10.2,2.1
	c0.7,0.1,1.1,0.8,1,1.4c-0.1,0.7-0.8,1.1-1.5,1L12.5,90.5"/>
<path class="st4" d="M28.4,89.3c-0.4-0.1-0.8-0.4-0.9-0.8c-0.1-0.4,0-0.9,0.2-1.2c0.3-0.3,0.7-0.5,1.2-0.4l29,5.9
	c0.7,0.1,1.1,0.8,1,1.4c-0.1,0.7-0.8,1.1-1.5,1L28.4,89.3"/>
<path class="st4" d="M27.4,93.6c-0.4-0.1-0.8-0.4-0.9-0.8c-0.1-0.4,0-0.9,0.2-1.2c0.3-0.3,0.7-0.5,1.2-0.4L57,97.1
	c0.4,0.1,0.8,0.4,0.9,0.8c0.2,0.4,0,0.9-0.2,1.2c-0.3,0.3-0.8,0.5-1.2,0.4L27.4,93.6"/>
<path class="st4" d="M22.3,100.7c-0.1,0.7-0.8,1.1-1.5,1s-1.1-0.8-1-1.4l5.5-27.6c0.1-0.7,0.8-1.1,1.5-1c0.7,0.1,1.1,0.8,1,1.4
	l-5.6,27.5"/>
<path class="st4" d="M26.5,101.6c-0.1,0.7-0.8,1.1-1.5,1s-1.1-0.8-1-1.4l5.6-27.6c0.1-0.7,0.8-1.1,1.5-1s1.1,0.8,1,1.4L26.5,101.6"
	/>
<path class="st4" d="M26.4,103.4L26.4,103.4c-0.4-0.1-0.8-0.4-0.9-0.8c-0.1-0.4,0-0.9,0.2-1.2c0.3-0.3,0.7-0.5,1.2-0.4l26.9,5.5
	l0.9-4.4c0.1-0.7,0.8-1.1,1.5-1c0.7,0.1,1.1,0.8,1,1.5l-1.1,5.6c-0.1,0.3-0.2,0.6-0.5,0.8c-0.3,0.2-0.6,0.2-0.9,0.2L26.4,103.4
	C26.4,103.4,26.4,103.4,26.4,103.4z"/>
<path class="st4" d="M13.7,76.4L13.7,76.4c0.1-0.7,0.8-1.1,1.4-1c0.7,0.1,1.1,0.8,1,1.5l-4.2,21l15,3.1c0.7,0.1,1.1,0.8,1,1.5
	c-0.1,0.7-0.8,1.1-1.5,1l-16.2-3.3c-0.3-0.1-0.6-0.2-0.8-0.5c-0.2-0.3-0.2-0.6-0.2-0.9L13.7,76.4L13.7,76.4L13.7,76.4z"/>
<path class="st4" d="M57.2,101.8c-0.1,0.7-0.8,1.1-1.5,1c-0.7-0.1-1.1-0.8-1-1.5L58,85.4c0.1-0.7,0.8-1.1,1.5-1
	c0.7,0.1,1.1,0.8,1,1.4L57.2,101.8"/>
<path class="st4" d="M11.6,77.2c-0.7-0.1-1.1-0.8-1-1.4s0.8-1.1,1.4-1l41.5,8.5c0.4,0.1,0.8,0.4,0.9,0.8c0.1,0.4,0,0.9-0.2,1.2
	c-0.3,0.3-0.7,0.5-1.2,0.4L11.6,77.2"/>
<path class="st4" d="M52.5,85.5c-0.4-0.1-0.8-0.4-0.9-0.8c-0.1-0.4,0-0.9,0.2-1.2c0.3-0.3,0.7-0.5,1.2-0.4l10.2,2.1
	c0.7,0.1,1.1,0.8,1,1.4c-0.1,0.7-0.8,1.1-1.5,1L52.5,85.5"/>
<path class="st0" d="M35.4,70.7L32.2,70c-1.3-0.3-2.3-1.3-2.5-2.6c-0.2-1.3,0.3-2.6,1.4-3.3c1.1-0.7,2.5-0.7,3.6,0
	c1.1,0.7,1.6,2.1,1.4,3.3"/>
<path class="st4" d="M35.7,69.4L35.7,69.4c0.7,0.1,1.1,0.8,1,1.4c-0.1,0.7-0.8,1.1-1.5,1l-3.2-0.7c-2.4-0.5-4-2.8-3.5-5.2
	c0.5-2.4,2.9-3.9,5.2-3.4c4.9,1.1,3.3,5.8,2.9,8.2c-0.1,0.4-0.4,0.8-0.8,0.9c-0.4,0.1-0.9,0.1-1.2-0.2c-0.3-0.3-0.5-0.7-0.4-1.2
	c0-0.1,0.6-3.3,0.6-3.5c0-1-0.8-1.9-1.8-2c-1-0.1-2,0.6-2.2,1.6c-0.1,0.5,0,1.1,0.3,1.6c0.3,0.4,0.8,0.8,1.3,0.9L35.7,69.4
	L35.7,69.4L35.7,69.4z"/>
<path class="st4" d="M36.9,104.3L36.9,104.3c-0.1,0.7-0.8,1.1-1.5,1c-0.7-0.1-1.1-0.8-1-1.5l1.3-6.4L39,81.5c0.1-0.7,0.8-1.1,1.5-1
	c0.7,0.1,1.1,0.8,1,1.4l-3.2,15.9L36.9,104.3L36.9,104.3z"/>
<path class="st4" d="M45.1,82.8c-0.1,0.4-0.4,0.8-0.8,0.9c-0.4,0.1-0.9,0.1-1.2-0.2c-0.3-0.3-0.5-0.7-0.4-1.2l1.2-5.9
	c0.1-0.7,0.8-1.1,1.5-1c0.7,0.1,1.1,0.8,1,1.4L45.1,82.8"/>
<path class="st4" d="M7.9,206.5L7.9,206.5c-0.7,0-1.2-0.6-1.2-1.2s0.6-1.2,1.2-1.2h161.5c19,0,34.4-6.1,46.5-18.6
	s20.8-31.8,26.1-58.3c0.1-0.4,0.4-0.8,0.8-0.9c0.4-0.1,0.9-0.1,1.2,0.2c0.3,0.3,0.5,0.7,0.4,1.2c-5.4,26.7-14.2,46.4-26.7,59.5
	c-12.5,13.1-28.6,19.4-48.2,19.4L7.9,206.5L7.9,206.5L7.9,206.5z"/>
<path class="st4" d="M7.9,211.1L7.9,211.1c-0.7,0-1.2-0.5-1.2-1.2s0.6-1.2,1.2-1.2h164.8c19,0,34.4-6.1,46.5-18.6
	c12-12.5,20.8-31.8,26.1-58.3c0.1-0.4,0.4-0.8,0.8-0.9s0.9-0.1,1.2,0.2c0.3,0.3,0.5,0.7,0.4,1.2c-5.4,26.7-14.2,46.4-26.7,59.5
	c-12.5,13.1-28.7,19.4-48.2,19.4L7.9,211.1L7.9,211.1L7.9,211.1z"/>
<path class="st5" d="M115.3,73.7c0,0-4,3.9-5.2,16.5l-3.2-0.7c0.3-4.8-0.6-20.8,7.2-28c18-11.1,27.9,14.6,27.9,14.6
	c-10,3.6-9,4.5-23.3,6.2c0,0-3.4-7.4-0.9-12.6"/>
<path class="st4" d="M143,75.7L143,75.7c0.2,0.6-0.1,1.3-0.7,1.6c-0.6,0.2-1.3-0.1-1.6-0.7v-0.1l-0.1-0.3c-0.1-0.3-0.3-0.7-0.5-1.1
	c-0.6-1.3-1.2-2.6-1.9-3.8c-1.9-3.4-4.5-6.4-7.7-8.8c-2.2-1.6-4.9-2.4-7.6-2.5c-4.2-0.2-7.9,1.6-11.1,6.1c-0.3,0.4-1,0.2-1.4,0
	c-0.4-0.2-0.9-0.7-0.7-1.1c0.1-0.4,0.3-0.8,0.7-1.1c2.7-3.1,7.4-6.4,12.5-6.3c3.2,0.1,6.3,1,9,2.9c2.4,1.7,4.5,3.8,6.2,6.2
	C140.2,69.5,141.8,72.5,143,75.7L143,75.7L143,75.7z"/>
<path class="st0" d="M134.2,68.4L134.2,68.4c0.2,0.4,0.2,0.9-0.1,1.2c-0.3,0.4-0.7,0.6-1.1,0.5c-0.4-0.1-0.8-0.3-1-0.8l0.4-0.2
	l-0.4,0.2l0.4-0.2l-0.4,0.2l-0.1-0.2c-0.2-0.3-0.4-0.6-0.6-0.8c-0.6-0.8-1.3-1.5-2.2-2c-0.7-0.4-1.4-0.6-2.2-0.6c-0.2,0-0.4,0-0.7,0
	c-0.4,0.1-0.9-0.1-1.1-0.5c-0.2-0.3-0.3-0.8-0.1-1.2c0.2-0.4,0.5-0.7,1-0.7c0.3,0,0.6,0,0.9,0c1.2,0,2.3,0.3,3.4,0.8
	c0.9,0.5,1.6,1.1,2.3,1.8C133.2,66.7,133.8,67.5,134.2,68.4L134.2,68.4L134.2,68.4z"/>
<path class="st4" d="M110.1,64.3L110.1,64.3c0.3-0.6,1.1-0.7,1.7-0.4c0.6,0.4,0.8,1.1,0.4,1.7c-3.8,6-4.2,14.2-4.3,19.7
	c0,1.8,0,3.4-0.1,4.5c-0.1,0.7-0.6,1.2-1.3,1.1c-0.7-0.1-1.2-0.6-1.1-1.3c0.1-1,0.1-2.5,0.1-4.4c0.1-1.9,0.1-4.1,0.4-6.4
	C106.1,73.7,107.6,68.7,110.1,64.3L110.1,64.3L110.1,64.3z"/>
<path class="st4" d="M116.2,70.7L116.2,70.7c0.5-0.5,1.2-0.4,1.7,0c0.5,0.5,0.4,1.2,0,1.7l-0.3-0.3l0.3,0.3l-0.3-0.3l0.3,0.3
	l-0.2,0.2c-0.2,0.2-0.4,0.4-0.7,0.8c-0.8,1-1.5,2.1-2.1,3.2c-2.2,4.2-3.5,8.8-3.8,13.5c-0.1,0.4-0.3,0.8-0.7,1
	c-0.4,0.2-0.9,0.2-1.2-0.1s-0.6-0.7-0.5-1.1C109.8,77,116.1,70.8,116.2,70.7L116.2,70.7L116.2,70.7z"/>
<path class="st4" d="M119.7,81.8L119.7,81.8c0.2,0.4,0.2,0.9-0.1,1.3c-0.2,0.4-0.7,0.6-1.1,0.5s-0.8-0.3-1-0.8
	c-0.4-0.9-0.7-1.8-1-2.7c-0.6-1.9-0.9-3.9-1-5.9c0-1.7,0.3-3.4,1.1-5c0.2-0.4,0.6-0.7,1-0.8c0.4,0,0.9,0.2,1.1,0.6
	c0.2,0.4,0.2,0.9,0,1.3c-0.6,1.2-0.8,2.6-0.8,3.9C118.1,76.9,118.6,79.4,119.7,81.8L119.7,81.8L119.7,81.8z"/>
<path class="st0" d="M106.8,94.8c-1.5-0.6-2.3-2.2-1.8-3.8s2.2-2.3,3.8-1.8c1.5,0.6,2.3,2.2,1.8,3.8C110,94.6,108.3,95.4,106.8,94.8
	z"/>
<path class="st16" d="M146.4,92.3l0.3,1.4c0.2,1,0.2,2,0.1,3.1c-0.2,2-0.3,4-0.1,6.1c0,0,4.7,0,4.9,3.2c0.2,2.1-2.6,4.2-6.4,2.6
	c-1.3-0.8-2.8-1.3-4.4-1.2c-2.8,0.2-5.5,0-8.2-0.3l0.1-0.3c-1.2-4.7,2.9-8.5,2.9-8.5l-1.1-6.8l2.3-1.8
	C139.7,91.3,143,92.2,146.4,92.3"/>
<path class="st4" d="M106,91.9L106,91.9c-0.1,0.4-0.5,0.8-0.9,0.8c-0.4,0.1-0.9-0.1-1.2-0.4s-0.3-0.8-0.2-1.2
	c0.8-2.4,3.5-3.7,5.9-2.8c2.4,0.8,3.6,3.5,2.8,5.9s-3.5,3.7-5.9,2.8c-0.4-0.2-0.7-0.5-0.8-0.9c-0.1-0.4,0.1-0.9,0.4-1.2
	c0.3-0.3,0.8-0.3,1.2-0.2c1.1,0.4,2.4-0.2,2.8-1.3c0.4-1.2-0.2-2.4-1.3-2.8C107.7,90.2,106.4,90.8,106,91.9L106,91.9z"/>
<path class="st4" d="M146.3,83L146.3,83l5.1-1.8c0.5-0.2,1,0,1.3,0.3s0.4,0.8,0.2,1.3c-0.2,0.5-0.5,1.1-0.8,1.6
	c-0.6,1-1.2,2-2.1,2.8c-0.6,0.7-1.3,1.1-2.2,1.4l-0.3-1.2l0.3-1.2l-0.1,0.3l0.1-0.3l-0.1,0.3l0.1-0.3h0.4c0.4,0.1,0.8,0.1,1.1,0.1
	c0.6,0,1.2-0.1,1.8-0.2c0.6-0.2,1.1-0.5,1.6-1c0.4-0.4,0.9-0.5,1.4-0.3c0.5,0.2,0.8,0.7,0.7,1.2c-0.1,0.8-0.4,1.7-0.7,2.4
	c-0.7,1.7-1.9,3-3.5,3.9c-1.5,0.8-3.2,1.2-4.9,1.2c-3.5-0.2-6.9-1.1-10-2.8l0.5-1.1l0.7,1l-1.8,1.3l1,6.1c0.1,0.4-0.1,0.8-0.4,1.1
	l-0.1,0.1l-0.3,0.3c-0.4,0.4-0.7,0.8-1,1.2c-0.8,1.2-1.3,2.7-1.4,4.2c0,1.7,0.7,3.3,1.9,4.5c2.2,2.3,4.9,4,7.9,5.1
	c0.5,0.2,0.8,0.7,0.7,1.2v0.5c0,1.8,0.1,3.5,0.4,5.2c0.2,2.2,0.9,4.4,1.9,6.4c0.5,1,1.3,1.8,2.3,2.2c0.4,0.1,0.6,0.4,0.7,0.8
	s0.1,0.7-0.1,1l-0.1,0.2c-0.1,0.1-0.1,0.3-0.1,0.4c0,0.3,0.1,0.5,0.4,0.7c0.1,0.1,0.2,0.1,0.4,0.1c0.3,0,0.5-0.1,0.6-0.4l1.6-2.6
	c0.2-0.4,0.6-0.6,1.1-0.6c0.4,0,0.8,0.3,1,0.6c0.2,0.4,0.4,0.8,0.5,1.2c0.3,0.9,0.5,1.9,0.5,2.9c0,0.7-0.1,1.4-0.3,2
	c-0.2,0.7-0.6,1.4-1.2,1.9c-1.6,1.4-3.6,2.1-5.7,2.1h-1.2c-3.6,0.1-7.1-1.3-9.8-3.8c-1.2-1.1-2.1-2.4-2.9-3.8l1.1-0.5l1.1,0.5
	l-1.1,2.6c-0.1,0.3-0.4,0.6-0.7,0.7c-0.3,0.1-0.6,0.1-1-0.1c-2.4-1.5-4.6-3.4-6.4-5.6c-4.2-5.3-6.6-11.9-6.6-18.7h1.2l0.3,1.2
	l-2.5,0.6c-0.4,0.1-0.8,0-1.1-0.3c-0.3-0.3-0.4-0.7-0.4-1l1.1-10.4l1.2,0.1l-0.4,1.2c0,0-0.9-0.4-2.2-0.9c-1.3-0.6-2.6-1.4-3.7-2.3
	c-0.3-0.3-0.5-0.8-0.3-1.3s0.6-0.8,1-0.8h0.2l0.7-0.1c0.7-0.1,1.3-0.2,1.9-0.4c0.3-0.1,0.7-0.2,1-0.4c0.1,0,0.1-0.1,0.2-0.1l1,0.8
	l-1.2-0.3l2-7c0.1-0.5,0.5-0.8,1-0.9l0.6-0.1l1.7-0.3c1.5-0.2,3.6-0.6,6.1-1.1c5.7-1.2,11.3-2.8,16.8-4.8l0.4,1.1l0.4,1.1l-0.4-1.1
	l0.4,1.1c-11.6,4.6-25.7,6.4-25.7,6.4l-0.2-1.2l1.2,0.3l-2,7c0,0.2-0.1,0.3-0.2,0.4c-0.4,0.5-1,0.9-1.7,1.2
	c-0.6,0.2-1.2,0.4-1.8,0.6c-0.8,0.2-1.5,0.3-2.2,0.4l-0.1-1.2l0.9-0.8c0.9,0.7,1.9,1.3,2.9,1.8c1,0.5,1.9,0.9,2.1,0.9
	c0.5,0.2,0.8,0.7,0.8,1.2l-0.9,8.7l0.8-0.2c0.4-0.1,0.7,0,1,0.2c0.3,0.2,0.4,0.6,0.5,0.9c0.1,6.2,2.2,12.2,6,17
	c1.6,2.1,3.6,3.8,5.8,5.2l-0.6,1.1l-1.1-0.4l1.1-2.6c0.2-0.4,0.6-0.7,1.1-0.7s0.9,0.3,1.1,0.7l0.1,0.2c0.1,0.2,0.2,0.4,0.4,0.7
	c0.5,0.8,1.1,1.5,1.8,2.1c2.2,2.1,5.1,3.2,8.2,3.1h1c1.2,0,2.4-0.3,3.6-0.9c0.6-0.3,1-0.9,1.2-1.5c0.1-0.4,0.2-0.8,0.2-1.2
	c0-1.1-0.3-2.1-0.8-3l0.4-0.2l-0.4,0.2l0.4-0.2l-0.4,0.2l1.1-0.6l1,0.6l-1.6,2.6c-1,1.4-2.9,1.8-4.3,0.9c-1.4-0.9-1.9-2.8-1.1-4.3
	l0.2-0.2l1,0.6l-0.4,1.1c-1.6-0.6-2.8-1.8-3.6-3.3c-0.8-1.5-1.4-3.2-1.7-4.8c-0.5-2.7-0.8-5.3-0.8-8.1v-0.6h1.2l-0.5,1.1
	c-3.3-1.2-6.3-3.2-8.8-5.8c-1.5-1.7-2.4-3.8-2.4-6.1c0.1-1.9,0.6-3.8,1.8-5.5c0.5-0.8,1.1-1.5,1.7-2.2l0.8,0.9l-1.2,0.2l-1.1-6.8
	c-0.1-0.5,0.1-0.9,0.5-1.2l2.4-1.8c0.4-0.3,0.8-0.3,1.2-0.1c2.8,1.5,5.8,2.3,9,2.5c1.2,0,2.4-0.2,3.5-0.8c0.8-0.4,1.4-1,1.9-1.7
	c0.6-0.8,1-1.8,1.1-2.8l0,0l1.2,0.2l0.9,0.8c-0.7,0.8-1.6,1.3-2.6,1.6c-0.8,0.2-1.6,0.4-2.5,0.4c-0.7,0-1.4-0.1-2.1-0.2
	c-0.5-0.2-0.9-0.6-0.9-1.2s0.4-1,0.9-1.2c0.4-0.2,0.8-0.4,1.1-0.7c0.4-0.4,0.8-0.9,1.1-1.4c0.4-0.7,0.9-1.5,1.2-2.3l1.1,0.5l0.4,1.1
	l-5.1,1.9l-0.4-1.2L146.3,83L146.3,83z"/>
<path class="st4" d="M122.5,90L122.5,90c0.2,0.6-0.1,1.3-0.8,1.5c-0.6,0.2-1.3-0.1-1.5-0.8l-2.7-8.1c-0.1-0.3-0.1-0.7,0.1-1
	c0.2-0.3,0.5-0.5,0.9-0.6h0.6l1.6-0.2c1.4-0.2,3.3-0.5,5.6-0.9c5.2-1,10.3-2.6,15.1-4.9c0.4-0.2,0.9-0.2,1.2,0.1
	c2.9,2.1,4.8,5.3,5.2,8.8c0.1,0.7-0.4,1.3-1.1,1.3s-1.3-0.4-1.3-1.1c-0.2-1.9-1-3.7-2.2-5.1c-0.6-0.7-1.2-1.4-2-1.9l0.7-1l0.6,1.1
	c-5,2.4-10.3,4.1-15.7,5.1c-2.7,0.5-5.4,0.9-8.1,1.2l-0.1-1.2l1.2-0.4L122.5,90L122.5,90L122.5,90z"/>
<path class="st4" d="M144.9,92.4L144.9,92.4c-0.1-0.4,0.1-0.9,0.4-1.2c0.3-0.3,0.8-0.4,1.2-0.2c0.4,0.2,0.7,0.5,0.8,0.9l0.3,1.4
	c0.1,0.7,0.2,1.4,0.2,2.1c0,0.4,0,0.9-0.1,1.3c-0.2,1.3-0.2,2.6-0.2,4c0,0.6,0.1,1.2,0.1,1.8l-1.2,0.1v-1.2c0.6,0,1.2,0.1,1.7,0.2
	c1.2,0.2,2.3,0.7,3.1,1.5c0.7,0.7,1.1,1.6,1.2,2.6v0.3c0,1.2-0.6,2.2-1.5,3c-1,0.8-2.2,1.2-3.5,1.2c-1.1,0-2.1-0.2-3.1-0.7
	c-0.4-0.2-0.7-0.6-0.8-1c-0.1-0.4,0.1-0.9,0.5-1.2c0.4-0.2,0.8-0.3,1.2-0.1c0.7,0.3,1.4,0.5,2.2,0.5c0.7,0,1.4-0.2,1.9-0.6
	c0.4-0.3,0.6-0.7,0.6-1.1v-0.1c0-0.4-0.2-0.8-0.5-1.1c-0.4-0.3-0.8-0.6-1.2-0.7c-0.7-0.2-1.4-0.4-2.1-0.4c-0.6,0-1.1-0.5-1.2-1.1
	c-0.1-0.7-0.1-1.3-0.1-2.1c0-1.4,0.1-2.8,0.2-4.2c0-0.3,0-0.7,0-1c0-0.6-0.1-1.1-0.1-1.7l-0.3-1.4L144.9,92.4L144.9,92.4z"/>
<path class="st0" d="M146.2,113.8c-0.5,0.8-1.3,1.4-2.3,1.5c-12.3,1.9-14.3-9.6-14.3-9.6c1.9,1.8,4.3,1.6,10.7,1.6
	c3.9,0,5.5,1.9,6.1,3.5C146.9,111.8,146.8,112.9,146.2,113.8z"/>
<path class="st4" d="M145.4,113.2c0.2-0.3,0.3-0.7,0.3-1.1c0-0.2-0.1-0.5-0.1-0.7c-0.3-0.8-0.8-1.3-1.4-1.8c-1.1-0.7-2.4-1-3.6-1
	h-2.9c-1.7,0.1-3.4,0-5.1-0.3c-1.3-0.2-2.5-0.8-3.5-1.7l0.8-0.9l1.2-0.2v0.2c0,0.1,0.1,0.3,0.2,0.6c0.2,0.7,0.4,1.4,0.8,2
	c0.9,1.9,2.3,3.6,4.1,4.7c1.6,0.9,3.5,1.4,5.4,1.4c0.8,0,1.6-0.1,2.4-0.2c0.6-0.1,1.1-0.4,1.5-1l1,0.6l1,0.7
	c-0.7,1.1-1.8,1.9-3.1,2.1c-0.9,0.2-1.9,0.2-2.9,0.2c-2.3,0.1-4.6-0.6-6.6-1.7c-1.6-0.9-2.9-2.2-3.9-3.7c-1.1-1.6-1.9-3.5-2.3-5.4
	c-0.1-0.5,0.2-1,0.6-1.3c0.5-0.2,1-0.2,1.4,0.2c0.6,0.6,1.4,1,2.2,1.1c1.6,0.2,3.1,0.3,4.6,0.2h2.9c1.8-0.1,3.5,0.4,5,1.4
	c1,0.7,1.8,1.7,2.3,2.8c0.2,0.5,0.3,1.1,0.3,1.7c0,0.9-0.2,1.7-0.7,2.4l-1-0.6L145.4,113.2L145.4,113.2z"/>
<path class="st4" d="M127.6,100.2L127.6,100.2c0.4,0.1,0.7,0.5,0.8,0.9c0.1,0.4-0.1,0.9-0.5,1.2c-0.3,0.3-0.8,0.3-1.2,0.1
	c-1.6-0.6-2.8-2-3-3.7c-0.2-1.7,0.4-3.4,1.8-4.4c1.3-1,3.2-1.2,4.7-0.5c0.6,0.3,0.8,0.9,0.6,1.6c-0.2,0.6-0.9,0.9-1.5,0.7
	c-1.1-0.4-2.4,0.1-2.9,1.2C125.9,98.4,126.4,99.7,127.6,100.2L127.6,100.2z"/>
<path class="st4" d="M140.2,98.1L140.2,98.1c-0.1,0.4-0.3,0.8-0.7,1c-0.4,0.2-0.9,0.1-1.2-0.1c-0.4-0.2-0.6-0.7-0.5-1.1
	c0.2-1.9,1.8-3.4,3.8-3.4h0.4c1.9,0.2,3.4,1.8,3.4,3.8v0.4c-0.1,0.7-0.7,1.2-1.3,1.1c-0.7-0.1-1.2-0.7-1.1-1.3v-0.2
	c0-0.7-0.5-1.3-1.2-1.3h-0.1C140.8,96.9,140.3,97.4,140.2,98.1L140.2,98.1L140.2,98.1z"/>
<path class="st4" d="M148.4,162.2L148.4,162.2c-0.1-0.7,0.3-1.3,1-1.4c0.7-0.1,1.3,0.3,1.4,1c0.2,1.1,0.3,2.2,0.3,3.4
	c0,1.4-0.1,2.8-0.4,4.2c-0.1,0.4-0.4,0.8-0.8,0.9c-0.4,0.1-0.9,0.1-1.2-0.2c-0.3-0.3-0.5-0.8-0.4-1.2v-0.2c0-0.2,0.1-0.4,0.1-0.8
	c0.1-0.9,0.2-1.8,0.2-2.6C148.6,164.2,148.6,163.2,148.4,162.2L148.4,162.2L148.4,162.2z"/>
<path class="st4" d="M146.3,139.9L146.3,139.9c-0.2-0.4-0.1-0.9,0.1-1.2c0.3-0.4,0.7-0.5,1.1-0.5c0.4,0.1,0.8,0.3,1,0.7
	c0.6,1.5,1.8,8,2.1,9.6c0.1,0.7-0.3,1.3-0.9,1.5s-1.3-0.3-1.5-1C147.9,147.6,146.8,141.3,146.3,139.9L146.3,139.9L146.3,139.9z"/>
<path class="st4" d="M118.9,111.2L118.9,111.2c0.7,0.2,1.1,0.8,0.9,1.4c-0.2,0.7-0.8,1.1-1.4,0.9l0.1-0.5l-0.1,0.5l0.1-0.5l-0.1,0.5
	h-0.3c-1.4-0.2-2.6,0.2-4,0.5s-6,4.9-7,6c-0.3,0.3-0.7,0.6-1.1,0.6c-0.4,0-0.8-0.3-1-0.7c-0.2-0.4-0.1-0.9,0.2-1.2
	c1.1-1.6,6.3-6.1,8.1-6.9c1.3-0.6,2.6-0.8,4-0.8C117.7,111.1,118.3,111.1,118.9,111.2L118.9,111.2L118.9,111.2z"/>
<path class="st4" d="M128,155.2L128,155.2c0.5,0.4,0.6,1.1,0.3,1.6c-0.3,0.5-1.1,0.7-1.6,0.4c-5.5-3.7-10.5-9.6-14.1-18.5
	c-0.2-0.6,0-1.3,0.7-1.6c0.6-0.2,1.3,0.1,1.6,0.7C118.2,146.3,122.9,151.7,128,155.2L128,155.2L128,155.2z"/>
<path class="st4" d="M159.5,159L159.5,159c0.4-0.2,0.9-0.1,1.2,0.2c0.3,0.3,0.5,0.8,0.4,1.2s-0.4,0.8-0.8,0.9
	c-4.2,1.3-8.6,1.9-13,1.9c-5.1,0-10.1-0.9-14.8-2.8c-0.4-0.2-0.7-0.5-0.7-1c-0.1-0.4,0.1-0.9,0.5-1.1c0.4-0.3,0.8-0.3,1.2-0.1
	c4.4,1.8,9.1,2.7,13.8,2.6C151.5,160.7,155.6,160.1,159.5,159L159.5,159L159.5,159z"/>
<path class="st4" d="M157.6,147.6L157.6,147.6c0.4-0.1,0.9,0,1.2,0.2c0.3,0.3,0.5,0.7,0.4,1.2c-0.1,0.4-0.4,0.8-0.8,0.9
	c-2.7,0.8-5.4,1.1-8.3,1.1c-2.9,0-5.7-0.4-8.4-1.3c-3.2-1.1-6.1-3-8.3-5.5c-0.3-0.3-0.4-0.8-0.3-1.2c0.1-0.4,0.5-0.8,0.9-0.8
	c0.4-0.1,0.9,0.1,1.2,0.4c2,2.2,4.5,3.9,7.3,4.9c2.4,0.8,5,1.2,7.6,1.2C152.6,148.6,155.1,148.3,157.6,147.6L157.6,147.6
	L157.6,147.6z"/>
<path class="st5" d="M100.4,132.1c0,0,4.6,40,34.9,40c42.2,0,44.7-62.6,93.9-44L217.6,162c-6.9,20.3-26,34-47.5,34H30L6.1,83.5
	L100.4,132.1L100.4,132.1z"/>
<path class="st6" d="M13.4,118.8c16.1-3.3,31.9,7.1,35.2,23.3c3.3,16.2-7.1,32-23.2,35.3"/>
<path class="st6" d="M6.6,83.5l94.3,48.7c0,0,4.6,40.1,34.9,40.1c42.2,0,45.5-65,94.7-46.4l-2.2,5.6c-42.4-17.2-50.3,47.4-92.5,47
	c-33.5-0.3-43.2-44.5-43.2-44.5L8.4,91.1L6.6,83.5z"/>
<path class="st4" d="M19,153.6L19,153.6c-0.1-0.4,0.1-0.9,0.4-1.2c0.3-0.3,0.8-0.4,1.2-0.2c0.4,0.1,0.7,0.5,0.8,0.9l8.5,41.6h140.3
	c20.9,0,39.6-13.3,46.4-33.2l6.4-18.7c0.2-0.6,0.9-0.9,1.5-0.7c0.6,0.2,0.9,0.9,0.8,1.5l-6.4,18.7c-7.1,20.8-26.7,34.8-48.6,34.8
	H28.9c-0.6,0-1.1-0.4-1.2-1L19,153.8L19,153.6L19,153.6z"/>
<path class="st4" d="M10.1,109.6c-0.1-0.7,0.3-1.3,1-1.4s1.3,0.3,1.4,1l9,45c0.1,0.4-0.1,0.9-0.4,1.2c-0.3,0.3-0.8,0.4-1.2,0.2
	c-0.4-0.1-0.7-0.5-0.8-0.9L10.1,109.6"/>
<path class="st4" d="M185.7,134.3L185.7,134.3c0.3-0.3,0.8-0.4,1.2-0.3s0.7,0.4,0.9,0.9c0.1,0.4,0,0.9-0.3,1.2
	c-5.6,5.5-10.6,12.1-16.2,18.2c-5.6,6.1-11.5,11.8-18.9,15.4c-5.2,2.6-11,3.9-16.8,3.8c-6.9,0.1-13.6-2.2-19-6.5
	c-4.6-3.9-8.4-8.7-10.9-14.2c-3.1-6.4-5.2-13.4-6.2-20.4l1.2-0.1l-0.6,1.1L7.8,85.8l4.8,24c0.1,0.7-0.3,1.3-1,1.5
	c-0.7,0.1-1.3-0.3-1.4-1L4.9,83.8c-0.1-0.5,0.1-0.9,0.5-1.2c0.4-0.3,0.9-0.3,1.3-0.1l94.3,48.6c0.4,0.2,0.6,0.6,0.7,0.9v0.2
	c0,0.2,0.1,0.4,0.1,0.7c0.1,0.6,0.2,1.5,0.5,2.6c0.6,3,1.4,5.9,2.4,8.8c2.3,7,6.4,15.2,13.2,20.6c4.9,4,11.1,6.1,17.5,6
	c5.5,0,10.9-1.2,15.7-3.6c4.6-2.4,8.9-5.4,12.6-9.1C171.4,151.1,178,141.8,185.7,134.3L185.7,134.3L185.7,134.3z"/>
<path class="st4" d="M225.1,143.9l-0.1,0.1c-0.1,0.3-0.4,0.5-0.9,0.5c-0.4,0.1-0.9-0.1-1.2-0.4c-0.3-0.3-0.4-0.8-0.2-1.2l6.1-17.6
	l1.1,0.4l-0.4,1.1c-5.1-2-10.5-3.1-16-3.2c-8.7,0-15.4,3.3-21.6,8.2c-0.5,0.4-1.2,0.3-1.7-0.2c-0.4-0.5-0.3-1.3,0.2-1.7
	c6.4-5.2,13.8-8.8,23.1-8.8c5.8,0.1,11.6,1.3,17,3.4c0.6,0.2,0.9,0.9,0.7,1.5l-6.1,17.5L225.1,143.9L225.1,143.9z"/>
<path class="st4" d="M48.6,110.4c0.4,0.2,0.7,0.6,0.8,1c0,0.4-0.2,0.9-0.6,1.1c-0.4,0.2-0.9,0.2-1.2,0L7.3,92.2
	c-0.4-0.2-0.7-0.6-0.7-1c-0.1-0.4,0.2-0.9,0.6-1.1c0.4-0.2,0.9-0.2,1.2,0L48.6,110.4"/>
<path class="st4" d="M208.1,127.8L208.1,127.8c0.4-0.1,0.9,0.1,1.2,0.4c0.3,0.3,0.4,0.8,0.2,1.2c-0.1,0.4-0.5,0.7-0.9,0.8
	c-4.8,1.1-9.3,3.4-13.1,6.5c-4.3,3.4-8.2,7.2-11.8,11.3c-7.7,8.5-15.4,18.1-25.1,24.5c-6.7,4.6-14.7,7.1-22.8,7.1h-0.4
	c-7.8,0-15.4-2.6-21.6-7.3c-5.5-4.3-10.1-9.6-13.6-15.6c-4.1-7-7.2-14.6-9.2-22.5l1.2-0.3l-0.5,1.1l-44.3-22.5
	c-0.4-0.2-0.7-0.6-0.7-1c0-0.4,0.2-0.9,0.6-1.1c0.4-0.2,0.9-0.2,1.3,0l44.3,22.5c0.3,0.2,0.6,0.4,0.6,0.8v0.3
	c0.1,0.2,0.1,0.4,0.2,0.8c0.2,0.7,0.4,1.7,0.8,2.9c1,3.3,2.2,6.6,3.6,9.8c3.4,7.7,8.9,16.9,17.1,22.9c5.8,4.4,12.9,6.8,20.2,6.9h0.4
	c5.8,0,11.5-1.3,16.7-3.9c5-2.6,9.6-5.9,13.6-9.8c8.4-7.9,15.6-17.6,23.8-25.1c5.4-5,11.2-9,18.1-10.5L208.1,127.8L208.1,127.8z"/>
<path class="st4" d="M228.3,130.3L228.3,130.3c0.6,0.3,0.8,0.9,0.6,1.6c-0.2,0.6-0.9,1-1.5,0.7c-5.4-2.8-11.6-3.4-18.8-2.3
	c-0.7,0.1-1.4-0.6-1.4-1.2s0.6-1.1,1.2-1.2C214.5,126.5,219.2,126.8,228.3,130.3L228.3,130.3z"/>
<path class="st0" d="M164.2,161.1L164.2,161.1c-2.4,0.4-4.8-1.1-5.2-3.6l-1.2-6.4c-0.4-2.4,1.2-4.8,3.6-5.2c2.4-0.4,4.8,1.1,5.2,3.6
	l1.2,6.4c0.2,1.2,0,2.4-0.7,3.4C166.4,160.1,165.4,160.8,164.2,161.1L164.2,161.1z"/>
<path class="st4" d="M164.5,162.2c-1.5,0.3-3,0-4.3-0.9s-2.1-2.2-2.4-3.6l-1.2-6.4c-0.4-2,0.4-4.1,1.9-5.4c1.5-1.3,3.7-1.8,5.6-1.1
	c1.9,0.7,3.3,2.3,3.7,4.3l1.2,6.4c0.3,1.5,0,3-0.9,4.3C167.2,161.1,165.9,161.9,164.5,162.2l-0.2-1.2l-0.2-1.2
	c0.9-0.2,1.6-0.6,2.1-1.4c0.5-0.7,0.7-1.6,0.5-2.5l-1.2-6.4c-0.2-1.1-1-2.1-2.1-2.5c-1.1-0.4-2.3-0.1-3.2,0.6
	c-0.9,0.8-1.3,1.9-1.1,3.1l1.2,6.4c0.3,1.6,1.6,2.7,3.2,2.7c0.2,0,0.4,0,0.6,0l0.2,1.2L164.5,162.2L164.5,162.2z"/>
<path class="st14" d="M171.4,146.3c0,0,7.6-3.2,8.7,4.8c1,7.5-11.8,7.5-11.8,7.5s-0.6-3.8-1.8-9.6c-1.2-5.7,4.7-7.3,7.6-3.6"/>
<path class="st4" d="M171.8,147.4L171.8,147.4c-0.6,0.2-1.2-0.1-1.5-0.7c-0.2-0.6,0-1.3,0.6-1.6c1.2-0.5,2.5-0.7,3.8-0.7
	c1.5,0,2.9,0.4,4.1,1.3c1.5,1.3,2.4,3.1,2.5,5.1c0.1,0.3,0.1,0.6,0.1,1c0,1-0.2,1.9-0.6,2.7c-0.4,0.8-1,1.5-1.6,2
	c-1.3,1.1-2.9,1.8-4.5,2.2c-2.1,0.6-4.1,0.9-6.2,0.9c-0.6,0-1.1-0.4-1.2-1c0,0,0-0.2-0.1-0.7c-0.1-0.4-0.2-1.1-0.3-1.9
	c-0.3-1.6-0.8-4-1.4-6.9c-0.1-0.6-0.2-1.1-0.2-1.8c0-1.5,0.5-2.9,1.6-3.9c1-0.9,2.2-1.4,3.6-1.4c1.9,0,3.7,1,4.9,2.5
	c0.3,0.3,0.4,0.8,0.2,1.2c-0.2,0.4-0.5,0.7-1,0.8s-0.9-0.1-1.1-0.5c-0.7-0.9-1.8-1.5-2.9-1.6c-0.7,0-1.4,0.2-1.9,0.7
	c-0.6,0.6-0.9,1.4-0.8,2.2c0,0.4,0.1,0.8,0.1,1.2c1.3,5.8,1.9,9.6,1.9,9.6l-1.2,0.2v-1.2h0.8c0.5,0,1.2-0.1,2-0.2
	c1.8-0.2,3.6-0.7,5.2-1.5c0.9-0.4,1.7-1.2,2.2-2.1c0.2-0.5,0.4-1.1,0.4-1.6c0-0.2,0-0.4,0-0.6c-0.1-1.4-0.6-2.6-1.6-3.6
	c-0.7-0.6-1.6-0.8-2.5-0.8C173.7,146.9,172.8,147.1,171.8,147.4L171.8,147.4L171.8,147.4z"/>
<path class="st4" d="M46.8,205.3c0,0.7-0.5,1.2-1.2,1.2s-1.2-0.6-1.2-1.2v-8.8c0-0.7,0.5-1.2,1.2-1.2s1.2,0.6,1.2,1.2V205.3"/>
<path class="st4" d="M53.4,205.3c0,0.7-0.5,1.2-1.2,1.2S51,206,51,205.3v-8.8c0-0.7,0.5-1.2,1.2-1.2s1.2,0.6,1.2,1.2V205.3"/>
<path class="st4" d="M105.5,205.3c0,0.7-0.6,1.2-1.2,1.2s-1.2-0.6-1.2-1.2v-8.8c0-0.7,0.6-1.2,1.2-1.2s1.2,0.6,1.2,1.2V205.3"/>
<path class="st4" d="M112,205.3c0,0.7-0.6,1.2-1.2,1.2s-1.2-0.6-1.2-1.2v-8.8c0-0.7,0.6-1.2,1.2-1.2s1.2,0.6,1.2,1.2V205.3"/>
<path class="st4" d="M164.1,205.3c0,0.7-0.6,1.2-1.2,1.2s-1.2-0.6-1.2-1.2v-8.8c0-0.7,0.6-1.2,1.2-1.2s1.2,0.6,1.2,1.2V205.3"/>
<path class="st4" d="M170.7,205.3c0,0.7-0.6,1.2-1.2,1.2s-1.2-0.6-1.2-1.2v-8.8c0-0.7,0.6-1.2,1.2-1.2s1.2,0.6,1.2,1.2V205.3"/>
<path class="st4" d="M49.8,141.9L49.8,141.9c0.1,0.4-0.1,0.9-0.4,1.2c-0.3,0.3-0.8,0.4-1.2,0.2c-0.4-0.1-0.7-0.5-0.8-0.9
	c-1.5-7.5-5.9-14-12.3-18.2c-6.4-4.2-14.1-5.7-21.5-4.1c-0.4,0.1-0.9-0.1-1.2-0.4c-0.3-0.3-0.4-0.8-0.2-1.2c0.1-0.4,0.5-0.7,0.9-0.8
	c8.1-1.7,16.5,0,23.4,4.5C43.3,126.7,48.2,133.7,49.8,141.9L49.8,141.9L49.8,141.9z"/>
<path class="st4" d="M25.6,178.7L25.6,178.7c-0.4,0.1-0.9-0.1-1.2-0.4c-0.3-0.3-0.4-0.8-0.2-1.2c0.1-0.4,0.5-0.7,0.9-0.8
	c12.5-2.6,21.8-13.1,22.8-25.9c0-0.7,0.6-1.2,1.3-1.1s1.2,0.6,1.1,1.3C49.2,164.4,39.1,175.8,25.6,178.7L25.6,178.7L25.6,178.7z"/>
<path class="st0" d="M69.6,131.2c0.6,0.3,0.8,1,0.5,1.6c-0.3,0.6-1,0.8-1.6,0.5l-4.4-2.3c-0.4-0.2-0.6-0.6-0.7-1
	c0-0.4,0.2-0.8,0.6-1.1c0.4-0.2,0.8-0.3,1.2-0.1L69.6,131.2"/>
<path class="st0" d="M91.3,152.8L91.3,152.8c0.3,0.6,0,1.3-0.6,1.6c-0.6,0.3-1.3,0.1-1.6-0.5c-2-4.1-3.7-8.4-5.1-12.8l1.2-0.3
	l-0.6,1.1l-11.5-6c-0.4-0.2-0.6-0.6-0.7-1c0-0.4,0.2-0.8,0.6-1.1s0.8-0.3,1.2-0.1l11.5,6c0.3,0.2,0.5,0.4,0.6,0.8l0.1,0.2l0.2,0.7
	c0.2,0.6,0.5,1.5,0.9,2.6C88.7,146.9,90,149.9,91.3,152.8L91.3,152.8L91.3,152.8z"/>
<path class="st0" d="M96,161.2L96,161.2c0.3,0.6,0.1,1.3-0.4,1.6s-1.2,0.2-1.6-0.3c-0.7-1.1-1.4-2.2-2-3.3c-0.2-0.4-0.2-0.8,0-1.2
	c0.2-0.4,0.6-0.6,1.1-0.6s0.8,0.2,1.1,0.6C94.6,159,95.3,160.1,96,161.2L96,161.2L96,161.2z"/>
<path class="st0" d="M116,180.7L116,180.7c0.6,0.3,0.8,1,0.5,1.6c-0.3,0.6-1,0.8-1.6,0.6c-7.5-3.7-13.4-9.6-18-15.8
	c-0.3-0.4-0.4-0.9-0.2-1.3c0.2-0.4,0.6-0.7,1.1-0.8c0.5,0,0.9,0.2,1.1,0.6C103.3,171.6,109,177.3,116,180.7L116,180.7L116,180.7z"/>
<path class="st4" d="M322.8,104.9L322.8,104.9c-0.4,0.3-0.9,0.3-1.3,0.1c-0.4-0.2-0.6-0.7-0.6-1.1c0-0.4,0.3-0.9,0.7-1.1
	c4.4-2.6,9-5.6,13.8-8.9c0.5-0.3,1.3-0.2,1.6,0.3s0.2,1.3-0.2,1.7C332,99.2,327.3,102.2,322.8,104.9L322.8,104.9L322.8,104.9z"/>
<path class="st4" d="M275.4,121.5L275.4,121.5c-0.4,0.1-0.9-0.2-1.1-0.5c-0.2-0.4-0.3-0.8-0.1-1.2c0.2-0.4,0.6-0.7,1-0.7
	c13.9-1.3,30.1-7,46.1-16.2c0.4-0.2,0.9-0.2,1.2,0c0.4,0.2,0.6,0.6,0.6,1.1s-0.2,0.8-0.6,1.1C306.3,114.4,289.6,120.2,275.4,121.5
	L275.4,121.5z"/>
<path class="st4" d="M172,138.8L172,138.8c-0.2,0.4-0.5,0.7-1,0.8c-0.4,0.1-0.9-0.1-1.1-0.5c-0.3-0.4-0.3-0.8-0.1-1.2
	c2.4-5.1,5.7-9.8,9.7-13.8c8.4-8.9,20.2-13.9,32.4-13.8c5.9,0.1,11.8,1,17.5,2.8c13.5,4.1,25.8,6.5,37.9,6.5l8.2-0.4
	c0.7,0,1.2,0.6,1.2,1.2s-0.5,1.2-1.2,1.2l-8.4,0.4c-12.5,0-24.9-2.5-38.6-6.6c-5.4-1.7-11.1-2.6-16.8-2.7
	c-11.3-0.1-22.1,4.4-30.1,12.4C177.7,129,174.4,133.7,172,138.8L172,138.8L172,138.8z"/>
<path class="st4" d="M228.6,110.3L228.6,110.3c-0.6-0.2-1-0.9-0.8-1.5c0.2-0.6,0.9-1,1.5-0.8c11.6,3.6,23.7,5.5,35.9,5.7
	c13.5,0,26.8-2.8,39.2-8.2c14-5.9,28.9-15.6,44.9-30.3c0.5-0.4,1.2-0.3,1.7,0.1c0.4,0.5,0.4,1.2,0,1.7c-16.2,15-31.4,24.7-45.6,30.8
	c-12.7,5.5-26.3,8.3-40.1,8.3C252.8,115.9,240.5,113.9,228.6,110.3L228.6,110.3L228.6,110.3z"/>
<path class="st4" d="M172,132.4L172,132.4c-0.1,0.4-0.5,0.7-0.9,0.8c-0.4,0.1-0.9-0.1-1.1-0.4c-0.3-0.3-0.4-0.8-0.2-1.2
	c1.2-3,2.8-5.9,4.8-8.5c4.2-6,10-10.8,16.6-14c6.1-2.8,12.7-4.1,19.4-4.1c6.2,0,14.6,1.6,18.2,2.8c0.6,0.2,1.1,0.8,1,1.4
	c-0.1,0.7-0.8,1.2-1.4,1c-3.8-1-12.4-2.7-17.7-2.7c-14.4,0-23.9,6.1-29.9,12.2C176.9,123.3,174,127.7,172,132.4L172,132.4L172,132.4
	z"/>
<path class="st4" d="M254.4,127L254.4,127c-0.5-0.4-0.6-1.2-0.2-1.7c0.4-0.5,1.1-0.6,1.7-0.2l0.2,0.2l0.7,0.6
	c0.6,0.5,1.6,1.2,2.9,2.1c2.6,1.8,6.5,4.4,11.7,7.4c14.7,8.3,30.2,15.1,46.2,20.4c15.2,5,27.5,7,37.6,7c17.8,0,28.2-6.1,34.3-12.3
	c3.6-3.5,6.3-7.9,7.9-12.7c0.2-0.6,0.8-1,1.5-0.9c0.6,0.2,1,0.8,0.9,1.5c-1.6,5.1-4.5,9.7-8.2,13.5c-6.5,6.7-17.7,13.3-36.3,13.3
	c-10.3,0-22.9-2-38.3-7.1C276,144.3,254.4,127,254.4,127L254.4,127L254.4,127z"/>
<path class="st4" d="M255.6,134.6L255.6,134.6c-0.4-0.3-0.5-0.7-0.5-1.1c0.1-0.4,0.3-0.8,0.7-1c0.4-0.2,0.9-0.1,1.2,0.1l0.1,0.1
	l0.4,0.3l1.6,1.1c1.4,1,3.5,2.4,6.1,4c7.1,4.5,14.5,8.6,22.2,12.3c18.5,8.9,43.6,17.9,69.8,17.9c12.4,0,21.6-2.8,28.7-7.1
	c6.4-3.9,11.6-9.5,15.2-16.2c6.6-12.1,7.2-25.4,7.2-29.1v-1c0-0.7,0.5-1.2,1.1-1.3c0.7,0,1.2,0.5,1.3,1.2v1.1
	c-0.1,7.1-1.2,14.1-3.4,20.8c-3.1,9.4-8.9,19.9-20.1,26.7c-7.5,4.6-17.2,7.5-30,7.5c-26.7,0-52.1-9.1-70.8-18.1
	c-10.8-5.1-21.1-11.2-30.8-18.1L255.6,134.6L255.6,134.6z"/>
<path class="st17" d="M42,56.3c-0.3-0.5-2.6-4.1,1.9-6.6"/>
<path class="st17" d="M49.1,150.6c0,0,0.6-2.9-0.5-8.9"/>
<circle class="st17" cx="108.2" cy="92.7" r="3.5"/>
<path class="st17" d="M126.9,155.9c0,0,2.7,1.9,6.4,3.5"/>
<path class="st18" d="M186,135.7c0,0,4.9-4.4,5.6-5"/>
<path class="st4" d="M491.8,62.5c-0.7-0.1-1.2-0.7-1.1-1.3s0.7-1.2,1.3-1.1c1.3,0.1,2.5-0.8,2.6-2.2s-0.9-2.5-2.2-2.6
	s-2.5,0.8-2.6,2.2c-0.1,0.7-0.7,1.2-1.3,1.1s-1.2-0.7-1.1-1.3c0.2-2.7,2.6-4.6,5.3-4.4s4.6,2.6,4.4,5.3S494.5,62.8,491.8,62.5
	L491.8,62.5z"/>
<path class="st4" d="M418.2,31c-0.7-0.1-1.2-0.6-1.1-1.3s0.7-1.2,1.3-1.1c1.3,0.1,2.5-0.9,2.6-2.2s-0.9-2.5-2.2-2.6
	s-2.5,0.9-2.6,2.2c-0.1,0.7-0.7,1.2-1.3,1.1s-1.2-0.7-1.1-1.3c0.2-2.7,2.6-4.6,5.3-4.4s4.6,2.6,4.4,5.3S420.9,31.2,418.2,31
	L418.2,31z"/>
<path class="st4" d="M383.6,49c-0.7-0.1-1.2-0.7-1.1-1.3s0.7-1.2,1.3-1.1c1.3,0.1,2.5-0.8,2.6-2.2s-0.9-2.5-2.2-2.6
	s-2.5,0.8-2.6,2.2c-0.1,0.7-0.7,1.2-1.3,1.1s-1.2-0.7-1.1-1.3c0.2-2.7,2.6-4.6,5.3-4.4s4.6,2.6,4.4,5.3S386.2,49.2,383.6,49
	L383.6,49z"/>
<path class="st4" d="M449.5,96.2c-0.7-0.1-1.2-0.7-1.1-1.3s0.7-1.2,1.3-1.1c1.3,0.1,2.5-0.8,2.6-2.2s-0.9-2.5-2.2-2.6
	s-2.5,0.8-2.6,2.2c-0.1,0.7-0.7,1.2-1.3,1.1s-1.2-0.7-1.1-1.3c0.2-2.7,2.6-4.6,5.3-4.4s4.6,2.6,4.4,5.3S452.2,96.5,449.5,96.2
	L449.5,96.2z"/>
<path class="st17" d="M378.3,186.2c-0.2,0,3.7-3.4,4.9-5.4"/>
<path class="st17" d="M451.5,161.5c0,0,3.3-2.6,4.9-4.4"/>
<path class="st17" d="M493.7,128c0,0,3.3-2.6,4.9-4.4"/>
</svg>
