<?xml version="1.0" encoding="UTF-8"?><svg id="Layer_1" xmlns="http://www.w3.org/2000/svg" viewBox="0 0 491 490.54"><defs><style>.cls-1{fill:#da2f4f;}.cls-2{fill:#508673;}.cls-2,.cls-3,.cls-4,.cls-5,.cls-6,.cls-7,.cls-8{stroke:#482f3e;stroke-miterlimit:10;}.cls-2,.cls-3,.cls-4,.cls-6,.cls-7,.cls-8{stroke-width:11px;}.cls-3{fill:none;}.cls-9,.cls-6{fill:#e1dddd;}.cls-10{fill:#91b9ab;}.cls-4{fill:#9a705a;}.cls-5{stroke-width:10px;}.cls-5,.cls-11{fill:#f5c82c;}.cls-7{fill:#437a72;}.cls-8{fill:#c30132;}</style></defs><path class="cls-4" d="M5.71,200.57L245.28,5.63c.21-.17,.51-.17,.71,0,17.43,14.9,231.79,189.02,239.08,194.95,.13,.1,.19,.24,.2,.4,.49,17.43,.02,270.06,0,283.14,0,.3-.23,.54-.53,.55-26.03,.84-461.03,.02-478.69-.02-.31,0-.55-.25-.55-.56V201c0-.17,.08-.33,.21-.43Z"/><rect class="cls-6" x="59.87" y="62.21" width="370.05" height="238.13" rx=".56" ry=".56"/><path class="cls-2" d="M125.72,357l119.32-177.13c.22-.32,.69-.33,.92-.01l126.56,177.52"/><path class="cls-2" d="M177.93,259.69l66.11-98.15c.22-.32,.69-.33,.92-.01l70.25,98.54c.19,.26,.12,.62-.15,.79-2.83,1.76-17.97,9.77-44.93-.26-.11-.04-.23-.05-.35-.01-16.67,4.79-25.19,6.37-45.97,0-.1-.03-.2-.03-.3,0-12.69,3.17-24.28,5.9-45.26-.03-.37-.1-.53-.54-.32-.86Z"/><path class="cls-2" d="M191.53,208.99l52.92-78.56c.22-.32,.69-.33,.92-.01l56.26,78.91c.19,.26,.12,.63-.16,.8-2.52,1.53-14.62,7.66-35.95-.26-.11-.04-.23-.05-.35-.01-13.35,3.83-20.21,5.1-36.85,0-.1-.03-.2-.03-.3,0-10.15,2.54-19.43,4.72-36.17,0-.37-.1-.53-.54-.32-.86Z"/><path class="cls-4" d="M146.61,309.46L14.47,207.64c-3.66-2.82-8.97-.21-8.97,4.41V471.35c0,4.94,5.95,7.43,9.47,3.97l131.63-129.59v-36.26Z"/><path class="cls-4" d="M480.84,204.2l-141.33,110.46v26.44l141.1,138.95c1.73,1.71,4.67,.48,4.67-1.96V206.36c0-2.29-2.63-3.57-4.43-2.16Z"/><g><path class="cls-7" d="M75.01,300.69c5.94,.68,38.7,3.08,69.01-13.12,.16-.09-.16-.09,0,0,19.11,10.19,25.84,12.9,47.01,13.57,.2,0-.09-.18,0,0,4.28,8.01,12.99,29.04,52.63,29.05,.02,0,.05,0,.07,0,33.45-3.86,48.98-6.85,56.9-29.72,.08-.22-.24,0,0,0,11.76,.09,26.28-2.8,46.64-14.22,.15-.08-.16-.06,0,0,12.89,5.17,39.88,16.59,70.5,14.42,.45-.03,.23-.39,0,0-5.28,9.12-19.95,23.27-17.62,60.42,.02,.31,.31-.02,0,0-17.01,1.14-59.97-2.75-62.21,28.03-.03,.46,.35,.3,0,0-10.51-9-29.88-21.17-90.33-13.62-.02,0-.04,0-.06,0-60.45,1.28-66.38-5.08-95.67,11.37-.28,.16,.13,.3,0,0-6.34-14.03-12.79-29.44-63.32-23.26-.33,.04,0,.34,0,0,.12-15,4.25-24.21-13.56-62.92-.18-.39-.43-.05,0,0Z"/><path class="cls-3" d="M75.01,300.69s55,46.13,171.37,52.7c.02,0,.04,0,.06,0,48.94-2.39,107.72-12.67,171.33-52.72"/><path class="cls-3" d="M144.02,287.56s-5.43,13.44,4.86,48.26c.09,.3-.09,.63-.4,.71-16.29,4.27-30.48,2.76-59.92,27.08"/><path class="cls-3" d="M191.04,301.14s-9.42,7.39-1.14,45.07c.05,.22-.04,.45-.22,.58-15.33,11-23.64,7.93-37.79,40.08"/><path class="cls-3" d="M300.63,300.47s6.94,14.41,2.9,45.75c-.02,.19,.04,.38,.19,.51,7.41,6.09,23.97,11.65,34.22,42.39"/><path class="cls-3" d="M347.27,286.25s4.62,18.36-2.73,48.88c-.07,.28,.09,.57,.36,.66,19.68,7.09,33.42,7.31,55.25,25.29"/></g><circle class="cls-8" cx="222.99" cy="363.85" r="23.3"/><circle class="cls-8" cx="269.59" cy="363.85" r="23.3"/><circle class="cls-8" cx="246.29" cy="325.01" r="23.3"/><path class="cls-5" d="M270.7,122.34l-7.55,5.49c-1.81,1.31-2.56,3.64-1.87,5.76l2.88,8.88c1.54,4.75-3.89,8.7-7.93,5.76l-7.55-5.49c-1.81-1.31-4.25-1.31-6.06,0l-7.55,5.49c-4.04,2.93-9.47-1.01-7.93-5.76l2.88-8.88c.69-2.12-.07-4.45-1.87-5.76l-7.55-5.49c-4.04-2.93-1.96-9.32,3.03-9.32h9.33c2.23,0,4.21-1.44,4.9-3.56l2.88-8.88c1.54-4.75,8.26-4.75,9.8,0l2.88,8.88c.69,2.12,2.67,3.56,4.9,3.56h9.33c4.99,0,7.07,6.39,3.03,9.32"/><circle class="cls-11" cx="244.35" cy="184.55" r="7.77"/><circle class="cls-1" cx="275.42" cy="238.92" r="7.77"/><circle class="cls-10" cx="274.12" cy="196.2" r="3.88"/><circle class="cls-10" cx="204.22" cy="250.57" r="3.88"/><circle class="cls-9" cx="221.05" cy="285.53" r="7.77"/></svg>