<?xml version="1.0" encoding="UTF-8"?><svg id="Layer_1" xmlns="http://www.w3.org/2000/svg" viewBox="0 0 415.82 500"><defs><style>.cls-1{fill:#f8c1a2;}.cls-1,.cls-2,.cls-3,.cls-4{stroke:#3d464c;stroke-miterlimit:10;stroke-width:16px;}.cls-2{fill:none;}.cls-5{fill:#3d464c;}.cls-3,.cls-6{fill:#f7f7f7;}.cls-4{fill:#d33942;}</style></defs><path class="cls-3" d="M69.52,176.77c-6.46,1.64-52.42,15.18-61.13,69.2-1.83,23.8,2.59,34.19,18.5,53.86,.74,.92,.99,2.15,.62,3.27-5.13,15.66-26.24,65.29,41.5,83.19,.79,.21,1.48,.72,1.87,1.44,12.79,23.33,23.39,52.57,63.6,81.98,.31,.23,.66,.42,1.03,.55,17.6,6.38,33.65,7.16,60.36,.15,.41-.11,.73,.36,.45,.68-4.15,4.69-13.42,12.19-18.79,17.73-1.22,1.26-.2,3.35,1.54,3.17,16.38-1.74,57.58-5.47,92.78-40.67,31.01-32.84,40.73-46.15,49.87-62.39,.49-.87,1.3-1.52,2.26-1.8,13.44-3.87,37.91-11.68,47.09-36.59,.12-.32,.21-.67,.26-1.01,2.56-16.56,1.8-28.3-6.11-45.2-.82-1.76-.49-3.84,.85-5.24,13.87-14.39,49.71-71.65-33.18-121.76-.81-.49-1.75-.75-2.69-.75H70.97c-.5,0-.98,.06-1.46,.18Z"/><path class="cls-1" d="M70.97,176.59s-33.77,55.14-14.43,99.91c.39,.9,.93,1.72,1.57,2.46,12.74,14.79,24.66,32.27,74.05,17.64,29.63-11.11,70.22-31.36,134.42,.62,1.63,.81,3.4,1.32,5.22,1.47,23.58,1.9,48.45,4.56,62.89-17.09,7.5-13.13,17.35-15-6.33-105.01H70.97Z"/><path class="cls-5" d="M197.09,353.16c-19.67-.61-35.98-8.16-48.44-23.61-3.07-3.81-3.35-7.96-.88-12.06,2.29-3.83,5.97-5.16,10.34-4.58,2.69,.36,4.65,1.94,6.44,3.87,19.5,20.94,44.95,20.9,64.55-.08,5.05-5.4,11.02-6.29,15.65-2.33,4.77,4.08,4.95,10.03,.2,15.77-12.39,14.98-28.45,22.42-47.86,23.01Z"/><path class="cls-3" d="M70.97,176.59s-23.51,1.44-31.9-14.54c-2.09-3.98-2.37-8.66-1.2-13,3.74-13.85,10.7-34.57,45.52-36.22,31.88,0,234.41,1.88,234.41,1.88,0,0,25.98-1.73,37.99,31.43,.94,2.6,1.19,5.4,.82,8.13-1.03,7.81-1.94,13.65-15.86,19.95-4.45,2.01-9.29,3-14.17,2.87-44.16-1.16-255.62-.5-255.62-.5Z"/><path class="cls-4" d="M71.24,112.83S112.29,37.67,186,12.23c4.91-1.69,10.05-2.63,15.23-2.98,31.82-2.14,63.79-5.75,138.17,30.06,5.15,2.48,8.41,7.71,8.41,13.43h0c0,4.03-3.18,7.35-7.21,7.48-7.58,.25-19.66,1.92-28.81,9.24-6.04,4.83-8.5,12.92-6.56,20.4,1.65,6.34,3.89,12.13,14.5,22.22,.28,.27,.1,.74-.28,.74H71.24Z"/><circle class="cls-2" cx="375.94" cy="60.32" r="31.88"/><circle class="cls-6" cx="375.94" cy="60.32" r="23.97"/><circle class="cls-5" cx="249.36" cy="228.16" r="20.63"/><circle class="cls-5" cx="144.34" cy="228.16" r="20.63"/></svg>