<?xml version="1.0" encoding="UTF-8"?><svg id="Layer_1" xmlns="http://www.w3.org/2000/svg" viewBox="0 0 480 498.25"><defs><style>.cls-1{fill:#fff;}.cls-2,.cls-3{fill:#662059;}.cls-4{fill:#c93e4f;}.cls-5{fill:#f4c95e;}.cls-6{fill:#fb5956;}.cls-7{fill:#f2ddd7;}.cls-3{fill-rule:evenodd;}.cls-8{fill:none;stroke:#662059;stroke-miterlimit:10;stroke-width:5.6px;}.cls-9{fill:#af8e77;}</style></defs><path class="cls-9" d="M190.72,290.12C145.3,353.96-8.26,337.7,3.42,164,14.68-3.66,244.98-15.82,267.27,218.67"/><path class="cls-6" d="M320.4,295.1s5.83-29.53,67.46-63.01c43.25-23.47,27.07-58.51,27.07-58.51,82.39,69.22,25.94,125.39,25.94,125.39l2.89,71.53s-68.99,14.7-116.72,11.71l-6.84-37.47-6.11,37.2c-46.82,2.61-116.44-13.32-116.44-13.32l1.66-69.64s-24.56-25.03-16.94-61.88c0,0-36.47-15.78-22.87-49.34,15.56-8.52,43.35,8.82,47.02,4.7,0,0,11.51,14,64.44,52.35,49.06,35.54,49.44,50.29,49.44,50.29Z"/><path class="cls-4" d="M319.27,395.38h0c-5.23,0-9.83,3.39-11.41,8.37l-4.47,14.3-62.51,1.31c-20.91-23.98-21.66-45.47-21.66-45.47l94.88,8.04,6.31-34.01,6.64,34.28c40.67,1.43,93.8-7.01,93.8-7.01,0,0-2.69,20.18-23.58,44.16l-62.51-1.31-4.5-14.3c-1.56-4.98-6.18-8.37-11.41-8.37"/><path class="cls-6" d="M297.43,446l-4.95,49.84h-61.33c-3.74,0-6.91-2.74-7.49-6.43-.58-3.69,1.61-7.26,5.18-8.39l30.13-9.7-6.46-24.56,44.91-.75Z"/><path class="cls-6" d="M389.24,446.75l-6.48,24.56,30.16,9.7c3.54,1.13,5.76,4.7,5.18,8.39-.58,3.69-3.77,6.43-7.49,6.43h-61.35l-4.93-49.84,44.91,.75Z"/><path class="cls-2" d="M456.1,498.25h-170.38c-1.51,0-2.74-1.23-2.74-2.76s1.23-2.76,2.74-2.76h170.38c1.53,0,2.76,1.23,2.76,2.76s-1.23,2.76-2.76,2.76Z"/><path class="cls-2" d="M274.89,498.25h-78.72c-1.53,0-2.76-1.23-2.76-2.76s1.23-2.76,2.76-2.76h78.72c1.53,0,2.76,1.23,2.76,2.76s-1.23,2.76-2.76,2.76Z"/><path class="cls-2" d="M183.45,498.25h-19.93c-1.53,0-2.76-1.23-2.76-2.76s1.23-2.76,2.76-2.76h19.93c1.51,0,2.74,1.23,2.74,2.76s-1.23,2.76-2.74,2.76Z"/><path class="cls-2" d="M151.41,498.25h-6.43c-1.53,0-2.76-1.23-2.76-2.76s1.23-2.76,2.76-2.76h6.43c1.53,0,2.76,1.23,2.76,2.76s-1.23,2.76-2.76,2.76Z"/><path class="cls-2" d="M477.26,498.25h-6.46c-1.51,0-2.76-1.23-2.76-2.76s1.26-2.76,2.76-2.76h6.46c1.51,0,2.74,1.23,2.74,2.76s-1.23,2.76-2.74,2.76Z"/><path class="cls-1" d="M444.01,330.03s-28.73,4.5-55.14,7.09l-30.69,3.29s-11.84,.15-18.6-.05v-31.49c4.45,.13,46.85-5.76,75.35-7.92,6.94-.53,2.44,15.68,6.99,15.33,5.2-.4,18.95-17.32,18.95-17.32l3.14,31.06Z"/><path class="cls-1" d="M199.31,296.53s20.61,6.46,27.52,6.99c28.53,2.16,69.32,5.88,73.77,5.73v28.68c-6.76,.23-18.6,.05-18.6,.05l-30.69-3.29c-26.42-2.59-55.14-7.06-55.14-7.06l3.14-31.09Z"/><path class="cls-4" d="M358.03,308.82c-.88-14.68,16.54-23.12,25.26-6.99,8.72,16.16,15.11,26.34,15.11,26.34,0,0-30.36,25.89-43.13,6.26-13.65-20.99,10.88-28.95,10.88-28.95"/><path class="cls-2" d="M199.21,301.84c-.8,0-1.58-.35-2.11-.98-7.62-8.77-13.27-19.1-16.56-30.29-.3-.93-.05-1.96,.65-2.69,.68-.73,1.68-1.01,2.64-.78,.98,.25,1.73,.98,2.01,1.94,3.07,10.43,8.34,20.06,15.46,28.22,.7,.83,.85,1.99,.4,2.97s-1.43,1.61-2.49,1.61Z"/><path class="cls-2" d="M180.61,258.96c-1.43,0-2.61-1.11-2.76-2.51-.73-6.76-.35-13.57,1.11-20.21,.4-1.46,1.91-2.34,3.37-1.94,1.48,.38,2.34,1.88,1.96,3.37-1.26,6.01-1.58,12.16-.93,18.27,.13,1.51-.98,2.87-2.49,2.99-.1,.03-.18,.03-.25,.03Z"/><path class="cls-2" d="M318.9,306.28c-.78,0-1.53-.33-2.06-.93-.53-.58-.78-1.36-.68-2.14,2.49-23.3-21.29-39.16-46.47-55.95-16.71-11.16-34.01-22.7-43.03-36.82-.83-1.28-.45-2.99,.83-3.82,1.28-.8,2.99-.45,3.82,.85,8.39,13.14,25.21,24.35,41.44,35.19,25.43,16.96,51.72,34.51,48.88,61.15-.15,1.41-1.33,2.46-2.74,2.46Z"/><path class="cls-5" d="M337.8,305.43c1.16,1.13,1.78,2.69,1.78,4.3v26.09c0,1.61-.63,3.17-1.78,4.3-1.13,1.13-2.69,1.78-4.3,1.78h-27.04c-1.61,0-3.14-.65-4.3-1.78-1.13-1.13-1.78-2.69-1.78-4.3v-26.09c0-1.61,.65-3.17,1.78-4.3,1.16-1.16,2.69-1.78,4.3-1.78h27.04c1.61,0,3.17,.63,4.3,1.78Z"/><path class="cls-2" d="M198.53,343.23h-.05c-1.53-.03-2.74-1.28-2.69-2.81l.98-41.52c.08-1.51,1.31-2.69,2.81-2.69,1.53,.03,2.74,1.31,2.69,2.81l-.98,41.52c-.03,1.51-1.26,2.69-2.76,2.69Z"/><path class="cls-2" d="M303.24,384.98c-45.87,0-105.33-13.52-105.99-13.67-1.28-.28-2.16-1.43-2.14-2.74l.68-28.37c.1-1.51,1.33-2.69,2.81-2.71,1.53,.05,2.74,1.31,2.69,2.84l-.6,26.11c11.91,2.59,69.9,14.6,111.06,12.84l5.93-34.99c.18-.98,.83-1.78,1.76-2.14,.93-.35,1.96-.18,2.74,.48,.75,.63,1.11,1.61,.96,2.59l-6.33,37.17c-.2,1.28-1.28,2.24-2.56,2.29-3.54,.2-7.24,.3-11.01,.3Z"/><path class="cls-2" d="M268.53,339.31c-.08,0-.13-.03-.18-.03-22.7-1.63-45.27-4.5-67.66-8.62-1.48-.28-2.49-1.71-2.19-3.22,.28-1.48,1.71-2.49,3.22-2.19,22.14,4.05,44.49,6.89,66.96,8.52,1.48,.08,2.64,1.33,2.59,2.84-.03,1.48-1.26,2.69-2.74,2.69Z"/><path class="cls-2" d="M291.25,340.87c-4.8,0-22.04-1.56-22.32-1.56-1.01,0-1.91-.55-2.39-1.41-.48-.85-.45-1.91,.05-2.76,.5-.85,1.41-1.36,2.41-1.33,.1,0,24.88,1.63,31.49,1.43h.1c1.51,0,2.71,1.21,2.74,2.71,.03,1.51-1.16,2.74-2.66,2.79-2.71,.1-6.21,.13-9.42,.13Z"/><path class="cls-2" d="M299.82,312.04c-33.83-1.46-67.56-4.9-100.96-10.35-.98-.15-1.78-.83-2.14-1.76s-.18-1.96,.48-2.74c.63-.75,1.61-1.11,2.59-.93,33.33,5.4,66.98,8.82,100.71,10.25,.75-.05,1.46,.2,2.01,.7,.53,.53,.83,1.21,.83,1.96,.03,.73-.23,1.43-.73,1.96-.5,.55-1.21,.85-1.94,.88-.23,0-.53,.03-.85,.03Z"/><path class="cls-2" d="M320.4,345.77h-13.72c-4.88,0-8.85-3.97-8.85-8.85v-26.09c0-4.88,3.97-8.85,8.85-8.85h12.21c1.51,0,2.76,1.23,2.76,2.76s-1.26,2.76-2.76,2.76h-12.21c-1.83,0-3.32,1.48-3.32,3.32v26.09c0,1.83,1.48,3.32,3.32,3.32h13.72c1.53,0,2.76,1.23,2.76,2.76s-1.23,2.76-2.76,2.76Z"/><path class="cls-2" d="M326.11,334.99h-11.81c-2.99,0-5.4-2.41-5.43-5.43,0-1.51,1.23-2.74,2.76-2.74s2.76,1.23,2.76,2.74l11.71-.08-.1-11.31-11.71,.1c0,.73-.28,1.43-.78,1.94-.53,.5-1.21,.8-1.94,.78-.73,0-1.43-.3-1.94-.83-.5-.53-.78-1.26-.78-1.99,.03-2.99,2.44-5.4,5.43-5.4h11.81c2.99,0,5.4,2.41,5.4,5.4v11.39c0,3.02-2.41,5.43-5.4,5.43Z"/><path class="cls-2" d="M242.01,421.67c-.8,0-1.56-.33-2.09-.93-2.74-3.14-5.3-6.41-7.69-9.8-.88-1.26-.58-2.97,.68-3.85,1.23-.88,2.97-.58,3.85,.65,2.29,3.24,4.73,6.36,7.34,9.35,.7,.83,.88,1.99,.43,2.97-.45,.98-1.43,1.61-2.51,1.61Z"/><path class="cls-2" d="M226.53,398.77c-1.06,0-2.01-.58-2.49-1.53-3.82-7.21-6.38-15.03-7.59-23.1-.13-1.51,1.01-2.87,2.51-2.99,1.51-.15,2.84,.98,2.99,2.49,1.16,7.39,3.54,14.53,7.04,21.14,.33,.65,.38,1.41,.15,2.11-.25,.7-.73,1.26-1.38,1.58-.4,.2-.8,.3-1.23,.3Z"/><path class="cls-2" d="M299.62,448.41h-50.09c-7.11,0-12.89-5.78-12.89-12.89v-7.77c0-7.14,5.78-12.89,12.89-12.92h37.64c1.51,0,2.76,1.26,2.76,2.76s-1.26,2.76-2.76,2.76h-37.64c-4.07,0-7.36,3.32-7.36,7.39v7.77c0,4.07,3.29,7.36,7.36,7.36h50.09c4.07,0,7.36-3.29,7.36-7.36v-7.77c0-4.07-3.29-7.39-7.36-7.39h-12.34c-1.53,0-2.76-1.23-2.76-2.76s1.23-2.76,2.76-2.76h12.34c7.11,.03,12.87,5.78,12.89,12.92v7.77c-.03,7.11-5.78,12.89-12.89,12.89Z"/><path class="cls-2" d="M304.52,420.36c-.88,0-1.71-.4-2.24-1.13-.5-.7-.65-1.61-.4-2.46l4.5-14.28c1.91-6.16,7.59-10.35,14.02-10.33,1.53,0,2.76,1.23,2.76,2.76s-1.23,2.76-2.76,2.76c-4.02-.03-7.57,2.59-8.77,6.46l-4.47,14.28c-.38,1.16-1.43,1.94-2.64,1.94Z"/><path class="cls-2" d="M291.3,498.25h-61.35c-5.08,0-9.42-3.72-10.2-8.75-.78-5.05,2.21-9.9,7.06-11.46l37.98-12.24c1.46-.45,3.02,.33,3.47,1.78,.48,1.46-.33,3.02-1.78,3.47l-37.98,12.24c-2.26,.73-3.67,2.99-3.29,5.35,.35,2.34,2.39,4.07,4.75,4.07h58.86l2.58-26.09c.18-1.51,1.51-2.59,3.02-2.46,.73,.08,1.41,.43,1.88,.98,.45,.58,.68,1.31,.6,2.04l-2.86,28.57c-.13,1.41-1.33,2.49-2.74,2.49Z"/><path class="cls-2" d="M293.96,471.33c-.08,0-.18,0-.28-.03-.73-.08-1.38-.43-1.86-.98-.45-.58-.68-1.31-.6-2.04l2.26-22.92c.18-1.51,1.51-2.61,3.02-2.46,1.53,.15,2.64,1.51,2.49,3.02l-2.29,22.92c-.13,1.41-1.31,2.49-2.74,2.49Z"/><path class="cls-2" d="M257.7,473.32c-1.26,0-2.36-.83-2.66-2.04l-6.38-24.18c-.38-1.46,.5-2.99,1.96-3.37,1.48-.4,2.99,.48,3.37,1.96l6.38,24.15c.18,.73,.08,1.48-.28,2.11-.38,.63-.98,1.08-1.68,1.28-.23,.05-.48,.08-.7,.08Z"/><path class="cls-2" d="M420.38,320.18c-1.18,.03-2.24-.75-2.61-1.88-.38-1.13,.03-2.39,.98-3.09,37.4-27.7,47.63-59.67,30.41-94.98-.65-1.36-.1-3.02,1.28-3.69,1.36-.65,3.02-.1,3.67,1.28,12.77,26.16,17.57,65.07-32.1,101.84-.48,.35-1.03,.53-1.63,.53Z"/><path class="cls-2" d="M446.67,212.74c-.96,0-1.83-.5-2.34-1.31-8.22-12.99-18.35-24.71-30.03-34.68-.68-.6-1.13-1.01-1.33-1.21-1.08-1.08-1.08-2.84,0-3.92,1.08-1.06,2.81-1.08,3.9,0,.18,.18,.53,.48,1.08,.96,12.09,10.38,22.57,22.49,31.09,35.97,.5,.85,.53,1.91,.05,2.79-.48,.88-1.41,1.41-2.41,1.41Z"/><path class="cls-3" d="M367,308.12c-.1,.03-9.9,3.32-12.49,10.68-1.41,4.1-.4,8.8,3.07,14.12,1.91,3.22,5.2,5.4,8.95,5.93,10.25,1.48,23.45-7.67,28.22-11.34-2.31-3.8-7.49-12.52-13.9-24.35-3.07-5.68-7.64-8.29-12.27-6.99-3.85,1.28-6.71,4.52-7.49,8.52,1.36-.73,2.76-1.33,4.2-1.83,1.46-.48,3.02,.33,3.47,1.76,.48,1.46-.3,3.02-1.76,3.49Zm1.76,36.42c-1.03,0-2.04-.08-3.04-.2-5.3-.75-9.98-3.82-12.77-8.39-4.45-6.84-5.65-13.22-3.62-19,1.21-3.24,3.24-6.11,5.91-8.32-.63-7.97,4.27-15.31,11.84-17.74,5.63-1.61,13.47,.08,18.62,9.65,8.57,15.86,14.95,26.06,15.03,26.16,.73,1.18,.48,2.69-.55,3.59-.73,.6-16.91,14.25-31.42,14.25Z"/><path class="cls-1" d="M413.1,325.76h0c-6.69,3.87-15.26,1.56-19.1-5.13l-10.2-17.67c-3.87-6.69-1.58-15.26,5.1-19.13,6.71-3.85,15.26-1.56,19.13,5.15l10.18,17.64c3.87,6.71,1.58,15.28-5.1,19.13Z"/><path class="cls-3" d="M386.18,290.37c-1.99,3.47-1.99,7.77,0,11.23l10.18,17.64c3.12,5.38,9.98,7.21,15.36,4.12,2.56-1.48,4.45-3.95,5.23-6.84,.75-2.87,.35-5.96-1.13-8.52l-10.18-17.67c-2.01-3.47-5.71-5.63-9.73-5.63-4.02,.03-7.72,2.16-9.73,5.65Zm19.93,40.04c-5.98,0-11.54-3.19-14.53-8.39l-10.18-17.64c-2.99-5.2-3.02-11.61-.03-16.81,2.99-5.2,8.55-8.39,14.53-8.39s11.54,3.22,14.5,8.42l10.18,17.67c2.24,3.85,2.84,8.42,1.68,12.72-1.16,4.3-3.97,7.97-7.82,10.18-2.54,1.48-5.4,2.26-8.34,2.26Z"/><path class="cls-2" d="M321.51,306.28c-1.41,0-2.59-1.06-2.74-2.46-2.87-26.69,23.35-44.28,46.47-59.82,1.28-.85,2.99-.53,3.85,.75,.83,1.26,.5,2.97-.75,3.82-26.39,17.74-46.4,33-44.08,54.64,.08,.78-.18,1.56-.7,2.14-.5,.6-1.26,.93-2.04,.93Z"/><path class="cls-2" d="M395.35,228.57c-1.16,0-2.19-.73-2.59-1.81-.4-1.11-.05-2.31,.83-3.07,14.2-11.89,20.94-22.85,21.21-34.56,.33-14.7-7.51-35.84-46.7-53.03-1.16-.5-1.91-.85-2.26-1.03-1.31-.78-1.76-2.46-1.01-3.77,.75-1.33,2.44-1.78,3.74-1.03,.28,.13,.85,.4,1.71,.75,42.02,18.42,50.39,41.85,50.02,58.26-.3,13.4-7.67,25.66-23.17,38.65-.53,.4-1.11,.63-1.78,.63Z"/><path class="cls-2" d="M250.96,146.96c-1.21,0-2.29-.8-2.64-1.96-.35-1.16,.08-2.41,1.08-3.09,6.48-4.35,13.32-7.99,20.53-10.93,.78-.33,1.33-.58,1.61-.7,1.33-.73,2.99-.25,3.74,1.06,.75,1.33,.28,2.99-1.03,3.74-.33,.18-1.08,.53-2.19,.98-6.89,2.81-13.4,6.28-19.58,10.43-.45,.3-.98,.45-1.53,.48Z"/><path class="cls-2" d="M339.23,385.3c-4.4,0-8.5-.1-12.34-.33-1.28-.08-2.34-1.01-2.56-2.24l-7.06-37.47c-.28-1.51,.7-2.94,2.21-3.22,1.48-.3,2.94,.7,3.22,2.19l6.66,35.34c5.86,.25,12.29,.28,19.33,.05,.03,0,12.86-.65,12.89-.65,1.51,0,2.74,1.21,2.76,2.71,.03,1.51-1.18,2.74-2.66,2.79-3.32,.13-19.34,.83-22.44,.83Z"/><path class="cls-2" d="M361.87,384.47c-1.48,0-2.71-1.18-2.76-2.66-.03-1.48,1.11-2.74,2.59-2.84,5.6-.38,22.15-2.06,28.21-2.69,1.51-.15,2.87,.96,3.02,2.46,.15,1.53-.96,2.89-2.46,3.04-6.13,.63-22.73,2.31-28.38,2.69h-.2Z"/><path class="cls-2" d="M390.1,381.78c-1.46,0-2.66-1.16-2.76-2.61-.08-1.46,.98-2.74,2.44-2.89,24.78-2.89,44.61-6.71,51.12-8.02l-2.79-69.19c-.05-.98,.45-1.91,1.28-2.46,.83-.53,1.88-.55,2.76-.1,.88,.45,1.43,1.36,1.46,2.36l2.89,71.5c.08,1.36-.85,2.54-2.16,2.81-.23,.05-23.4,5.03-53.94,8.57-.1,0-.2,.03-.3,.03Z"/><path class="cls-2" d="M385.4,339.59c-1.48,0-2.71-1.16-2.76-2.64-.05-1.48,1.08-2.74,2.54-2.87,26.89-2.06,53.77-6.01,53.9-6.04,.98-.15,1.96,.23,2.59,1.01,.6,.75,.78,1.81,.43,2.71-.35,.93-1.18,1.58-2.16,1.73-.13,.03-27.23,4.02-54.32,6.09h-.2Z"/><path class="cls-2" d="M349.21,340.87c-3.19,0-6.69-.03-9.5-.13-1.51-.05-2.69-1.28-2.66-2.79,.03-1.51,1.26-2.71,2.76-2.71h.08c6.61,.2,17.67,.05,17.79,.05,.73-.03,1.43,.25,1.96,.75,.53,.53,.83,1.23,.83,1.96,.03,1.53-1.18,2.79-2.71,2.81-.28,0-4.1,.05-8.55,.05Z"/><path class="cls-2" d="M349.16,312.14c-3.24,0-6.74-.03-9.45-.13-1.51-.05-2.69-1.31-2.66-2.79,.03-1.51,1.26-2.71,2.76-2.74,.03,0,.05,0,.08,.03,6.61,.2,18.35,.03,18.47,.03h.03c1.53,0,2.79,1.23,2.79,2.76s-1.21,2.76-2.74,2.76c-.28,0-4.5,.08-9.27,.08Z"/><path class="cls-2" d="M339.81,313.6c-.73,0-1.43-.28-1.96-.8-.53-.53-.8-1.23-.8-1.96,0-1.83-1.48-3.32-3.32-3.32h-13.75c-1.53,0-2.76-1.26-2.76-2.76s1.23-2.76,2.76-2.76h13.75c4.88,0,8.82,3.97,8.82,8.85,0,.73-.28,1.43-.8,1.96-.5,.53-1.21,.8-1.94,.8Z"/><path class="cls-2" d="M333.72,345.77h-13.75c-1.53,0-2.76-1.23-2.76-2.76s1.23-2.76,2.76-2.76h13.75c1.83,0,3.32-1.48,3.32-3.32v-24.84c0-1.53,1.23-2.76,2.76-2.76s2.74,1.23,2.74,2.76v24.82c0,4.9-3.95,8.87-8.82,8.87Z"/><path class="cls-7" d="M367.33,126.51v62.58c0,40.09-22.67,47.78-22.67,47.78l-3.67-6.36-21.82,15.38-18.55-15.38-5.98,7.36s-21.36-6.69-21.36-53.01v-58.23"/><path class="cls-2" d="M401.01,285.7c-1.01,0-1.91-.53-2.41-1.41-.48-.85-.48-1.94,.05-2.79l9.8-16.29c.5-.83,1.43-1.36,2.41-1.33,.98,.03,1.88,.55,2.36,1.43,.48,.85,.45,1.91-.05,2.76l-9.8,16.29c-.5,.83-1.41,1.33-2.36,1.33Z"/><path class="cls-2" d="M398.39,421.67c-1.08,0-2.06-.63-2.51-1.61-.45-.98-.28-2.14,.43-2.97,5.35-6.08,9.98-12.67,13.87-19.78,.73-1.36,2.39-1.86,3.74-1.13,1.33,.73,1.83,2.41,1.11,3.74-4.1,7.46-8.95,14.4-14.58,20.81-.5,.6-1.28,.93-2.06,.93Z"/><path class="cls-2" d="M416.92,392.19c-.9,0-1.76-.45-2.29-1.21-.5-.75-.6-1.73-.28-2.56,1.86-4.32,3.09-8.8,3.74-13.45,.13-1.51,1.46-2.64,2.97-2.51,1.53,.1,2.66,1.43,2.54,2.97-.68,5.2-2.06,10.2-4.12,15.03-.4,1.06-1.43,1.73-2.56,1.73Z"/><path class="cls-3" d="M340.79,420.36c-4.07,0-7.36,3.32-7.39,7.39v7.77c.03,4.07,3.32,7.36,7.39,7.36h50.09c4.07,0,7.36-3.29,7.36-7.36v-7.77c0-4.07-3.29-7.39-7.36-7.39h-50.09Zm50.09,28.05h-50.09c-7.11,0-12.89-5.78-12.89-12.89v-7.77c0-7.14,5.78-12.89,12.89-12.92h50.09c7.11,.03,12.87,5.78,12.89,12.92v7.77c-.03,7.11-5.78,12.89-12.89,12.89Z"/><path class="cls-2" d="M335.89,420.36c-1.21,0-2.29-.78-2.64-1.94l-4.47-14.28c-1.21-3.87-4.78-6.48-8.8-6.46-1.53,0-2.76-1.26-2.76-2.76s1.23-2.76,2.76-2.76c6.43-.03,12.14,4.17,14.05,10.33l4.47,14.28c.28,.85,.13,1.76-.4,2.46-.5,.73-1.33,1.13-2.21,1.13Z"/><path class="cls-2" d="M410.43,498.25h-61.33c-1.43,0-2.61-1.08-2.76-2.49l-4.93-49.84c-.15-1.51,.96-2.87,2.46-3.02,1.51-.15,2.87,.96,3.02,2.46l4.7,47.35h58.84c2.39,0,4.4-1.73,4.78-4.07,.35-2.36-1.03-4.62-3.29-5.35l-38-12.24c-.93-.3-1.63-1.08-1.86-2.04-.2-.96,.13-1.96,.85-2.64,.73-.65,1.76-.88,2.69-.58l38,12.24c4.85,1.56,7.84,6.41,7.06,11.46-.8,5.03-5.13,8.75-10.23,8.75Z"/><path class="cls-2" d="M382.71,473.32c-.25,0-.48-.03-.7-.08-.7-.2-1.31-.65-1.68-1.28-.38-.63-.48-1.38-.28-2.11l6.36-24.15c.4-1.48,1.91-2.36,3.39-1.96,1.46,.38,2.34,1.91,1.96,3.37l-6.38,24.18c-.33,1.21-1.41,2.04-2.66,2.04Z"/><path class="cls-1" d="M352.42,179.21c0-11.34,15.91-10.58,15.91-16.89v27.82c0,40.09-22.67,47.78-22.67,47.78l-3.69-6.36-21.79,15.38-18.55-15.38-6.01,7.36s-21.34-6.69-21.34-53.01v-23.6c0,6.31,15.91,5.55,15.91,16.89"/><path class="cls-1" d="M397.24,84.06c0,3.09-1.21,6.06-3.39,8.24s-5.15,3.42-8.22,3.42c-4.7,0-8.95-2.84-10.73-7.19-1.81-4.35-.8-9.37,2.51-12.69,3.32-3.34,8.32-4.32,12.67-2.54,4.35,1.81,7.16,6.06,7.16,10.76"/><path class="cls-6" d="M358.03,56.91c3.69,3.17,6.01,7.69,6.38,12.54v28.25h-89.8V62.44c0-32.95,26.67-59.67,59.57-59.67s59.59,26.72,59.59,59.67v12.69l-15.58-.5v-4.4c0-3.8-3.09-6.89-6.89-6.89s-6.89,3.09-6.89,6.89v10.73"/><path class="cls-2" d="M369.06,129.3h-65.87c-1.53,0-2.76-1.23-2.76-2.76s1.23-2.76,2.76-2.76h65.87c3.22,0,5.81-2.61,5.81-5.81v-9.88c0-3.22-2.59-5.81-5.81-5.81h-100.01c-3.19,0-5.78,2.59-5.81,5.81v9.88c.03,3.19,2.61,5.81,5.81,5.81h23.12c1.51,0,2.74,1.23,2.74,2.76s-1.23,2.76-2.74,2.76h-23.12c-6.23,0-11.31-5.08-11.31-11.34v-9.88c0-6.26,5.08-11.34,11.31-11.34h100.01c6.26,0,11.31,5.08,11.31,11.34v9.88c0,6.26-5.05,11.34-11.31,11.34Z"/><path class="cls-2" d="M393.77,77.9c-.73,0-1.43-.3-1.96-.8-.5-.53-.8-1.23-.8-1.96v-12.69c0-10.3-2.79-20.41-8.07-29.26-.78-1.31-.35-2.99,.93-3.8,1.31-.78,3.02-.35,3.8,.96,5.81,9.7,8.87,20.79,8.85,32.1v12.69c0,.73-.28,1.43-.8,1.96-.5,.5-1.21,.8-1.94,.8Z"/><path class="cls-2" d="M379.19,26.1c-.8,0-1.56-.35-2.09-.96-15.73-18.12-41.12-24.43-63.49-15.78-1.41,.55-3.02-.15-3.57-1.56-.55-1.43,.15-3.04,1.58-3.59,24.53-9.5,52.38-2.56,69.64,17.32,.7,.83,.88,1.99,.43,2.97-.45,.98-1.43,1.61-2.51,1.61Z"/><path class="cls-2" d="M274.61,100.47c-.73,0-1.43-.3-1.96-.8-.5-.53-.8-1.23-.8-1.96V62.44c-.05-19.13,8.72-37.22,23.75-49.04,.78-.6,1.81-.75,2.71-.4,.93,.38,1.58,1.21,1.71,2.19,.15,.96-.23,1.94-1.01,2.56-13.7,10.76-21.69,27.24-21.64,44.69v35.26c0,.73-.3,1.43-.83,1.96s-1.21,.8-1.94,.8Z"/><path class="cls-2" d="M364.41,100.47c-.73,0-1.43-.3-1.94-.8-.53-.53-.8-1.23-.8-1.96v-28.25c0-1.53,1.23-2.76,2.74-2.76s2.76,1.23,2.76,2.76v28.25c0,.73-.28,1.43-.8,1.96-.53,.5-1.23,.8-1.96,.8Z"/><path class="cls-2" d="M364.41,83.73c-.73,0-1.43-.28-1.94-.8-.53-.53-.8-1.21-.8-1.96v-10.73c0-3.44,1.83-6.64,4.8-8.34,2.99-1.73,6.66-1.73,9.65,0,2.99,1.71,4.83,4.9,4.83,8.34v4.4c0,1.53-1.23,2.76-2.76,2.76s-2.76-1.23-2.76-2.76v-4.4c0-2.29-1.83-4.12-4.12-4.12s-4.12,1.83-4.12,4.12v10.73c0,.75-.28,1.43-.8,1.96s-1.23,.8-1.96,.8Z"/><path class="cls-2" d="M385.62,98.46c-7.94,0-14.38-6.43-14.38-14.4s6.43-14.4,14.38-14.4,14.38,6.46,14.38,14.4c0,1.53-1.23,2.76-2.76,2.76s-2.74-1.23-2.74-2.76c0-4.9-3.97-8.87-8.87-8.87s-8.87,3.97-8.87,8.87,3.97,8.9,8.87,8.9c1.51,0,2.76,1.23,2.76,2.76s-1.26,2.74-2.76,2.74Z"/><path class="cls-1" d="M289.72,67.92c-.73,0-1.43-.3-1.94-.8-.53-.53-.8-1.23-.8-1.96v-1.58c.03-26.84,21.74-48.61,48.56-48.66,1.53,0,2.76,1.26,2.76,2.76s-1.23,2.76-2.76,2.76c-23.75,.03-43.03,19.33-43.05,43.13v1.58c0,.73-.28,1.43-.8,1.96-.53,.5-1.21,.8-1.96,.8Z"/><path class="cls-1" d="M289.74,86.57c-.75,0-1.43-.3-1.96-.8-.53-.53-.8-1.23-.8-1.96v-6.13c0-1.53,1.23-2.76,2.76-2.76s2.74,1.23,2.74,2.76v6.13c0,.73-.28,1.43-.8,1.96-.5,.5-1.21,.8-1.94,.8Z"/><path class="cls-2" d="M354.89,119.57h-14.02c-1.51,0-2.74-1.23-2.74-2.76s1.23-2.76,2.74-2.76h14.02c1.51,0,2.74,1.23,2.74,2.76s-1.23,2.76-2.74,2.76Z"/><path class="cls-2" d="M319.07,248.63c-.68,0-1.26-.2-1.76-.63l-16.41-13.6-4.25,5.2c-.73,.88-1.88,1.23-2.97,.88-.96-.28-23.27-7.82-23.27-55.62v-58.23c0-1.53,1.23-2.76,2.76-2.76s2.74,1.23,2.74,2.76v58.23c0,35.84,13.17,46.8,17.84,49.56l4.62-5.65c.48-.58,1.13-.93,1.86-1.01,.73-.08,1.46,.15,2.04,.6l16.91,14.02,20.08-14.15c.63-.43,1.43-.6,2.19-.43,.75,.15,1.41,.63,1.78,1.31l2.41,4.17c5.25-2.92,18.8-13.42,18.8-44.21v-62.58c0-1.53,1.23-2.76,2.76-2.76s2.76,1.23,2.76,2.76v62.58c0,41.6-23.55,50.04-24.56,50.39-1.26,.43-2.61-.1-3.27-1.23l-2.19-3.74-19.33,13.62c-.48,.35-1.01,.5-1.58,.5Z"/><path class="cls-2" d="M305.52,154.1c-.73,0-1.43-.28-1.96-.8-.5-.53-.8-1.23-.8-1.96-.03-2.99-2.46-5.43-5.45-5.43s-5.45,2.44-5.45,5.43c0,1.53-1.26,2.76-2.76,2.76s-2.76-1.23-2.76-2.76c.03-6.06,4.93-10.93,10.98-10.93s10.96,4.88,10.98,10.93c0,.73-.3,1.43-.8,1.96-.53,.53-1.23,.8-1.96,.8Z"/><path class="cls-2" d="M349.08,154.1c-.73,0-1.43-.28-1.94-.8-.53-.53-.8-1.23-.8-1.96-.03-2.99-2.46-5.43-5.48-5.43s-5.43,2.44-5.45,5.43c0,1.53-1.23,2.76-2.76,2.76s-2.76-1.23-2.76-2.76c.05-6.06,4.95-10.93,10.98-10.93s10.96,4.88,10.98,10.93c0,.73-.3,1.43-.8,1.96-.53,.53-1.23,.8-1.96,.8Z"/><path class="cls-1" d="M273.18,161.24c0,6.33,15.91,5.58,15.91,16.91"/><path class="cls-2" d="M289.09,180.92c-.73,0-1.43-.3-1.96-.8-.5-.53-.8-1.23-.8-1.96,0-4.42-3.22-6.31-8.12-8.7-3.64-1.76-7.79-3.77-7.79-8.22,0-1.51,1.23-2.76,2.76-2.76s2.74,1.26,2.74,2.76c0,.98,2.61,2.24,4.7,3.24,4.73,2.31,11.23,5.45,11.23,13.67,0,.73-.3,1.43-.83,1.96-.5,.5-1.21,.8-1.94,.8Z"/><path class="cls-1" d="M367.23,161.24c0,6.33-15.91,5.58-15.91,16.91"/><path class="cls-2" d="M351.32,180.92c-.73,0-1.43-.3-1.96-.8-.5-.53-.8-1.23-.8-1.96,0-8.22,6.48-11.36,11.23-13.67,2.09-1.01,4.67-2.26,4.67-3.24,0-1.51,1.23-2.76,2.76-2.76s2.76,1.26,2.76,2.76c0,4.45-4.15,6.46-7.82,8.22-4.9,2.39-8.12,4.27-8.12,8.7,0,.73-.28,1.43-.8,1.96-.5,.5-1.21,.8-1.94,.8Z"/><path class="cls-4" d="M328.62,201.75c0,2.94-1.56,5.65-4.1,7.14-2.54,1.46-5.68,1.46-8.22,0-2.54-1.48-4.12-4.2-4.12-7.14v-11.44h16.59l-.15,11.44Z"/><path class="cls-2" d="M320.4,212.76c-6.06-.03-10.96-4.93-10.96-11.01,0-1.51,1.23-2.76,2.74-2.76s2.76,1.26,2.76,2.76c0,3.02,2.44,5.48,5.45,5.48s5.48-2.46,5.48-5.48c0-1.51,1.23-2.76,2.74-2.76s2.76,1.26,2.76,2.76c0,6.08-4.9,10.98-10.98,11.01Z"/><path class="cls-2" d="M272.78,155.26c-6.71,0-12.14-5.43-12.14-12.14s5.43-12.16,12.14-12.16c1.53,0,2.76,1.23,2.76,2.76s-1.23,2.76-2.76,2.76c-3.67,0-6.64,2.97-6.64,6.64s2.97,6.64,6.64,6.64c1.53,0,2.76,1.23,2.76,2.76s-1.23,2.74-2.76,2.74Z"/><path class="cls-2" d="M367.86,155.26c-1.53,0-2.76-1.23-2.76-2.74s1.23-2.76,2.76-2.76c3.64,0,6.61-2.99,6.61-6.64s-2.97-6.64-6.61-6.64c-1.53,0-2.76-1.23-2.76-2.76s1.23-2.76,2.76-2.76c6.71,0,12.14,5.45,12.14,12.16s-5.43,12.14-12.14,12.14Z"/><path class="cls-1" d="M280.24,199.39c-6.31-2.16-11.76-6.33-15.51-11.86,7.77,1.56,13.55-2.66,30.01-12.92,16.46-10.23,25.46,3.12,25.46,3.12h-.05s9-13.35,25.46-3.12c16.46,10.25,22.24,14.48,30.01,12.92,0,0-14.68,25.38-55.47,8.24h.05c-8.39,3.8-17.49,5.83-26.72,5.93"/><path class="cls-2" d="M294.11,204.47h-.65c-1.53,0-2.76-1.26-2.74-2.76,0-1.53,1.26-2.76,2.76-2.74h.63c8.52-.25,16.91-2.14,24.68-5.6,.8-.43,1.73-.45,2.54-.1,27.55,11.56,42.2,2.99,48.36-2.87-5.55-.93-11.39-4.57-21.49-10.91l-4.05-2.54c-12.84-7.99-20.11,.23-21.49,2.01l-.03,.08c-.53,.83-1.46,1.33-2.44,1.36-.98,0-1.91-.5-2.44-1.33-1.33-1.78-8.55-10.2-21.56-2.11l-4.02,2.51c-10.1,6.33-15.93,9.98-21.46,10.91,3.04,2.84,6.58,5,10.48,6.41,.93,.35,1.61,1.16,1.76,2.14,.18,.96-.18,1.96-.93,2.59-.75,.63-1.78,.8-2.71,.48-6.94-2.39-12.89-6.96-16.96-13.07-.55-.93-.5-2.11,.13-2.99s1.73-1.31,2.79-1.11c6.03,1.21,10.93-1.83,23.98-10.03l4.05-2.51c13.52-8.42,22.82-2.51,26.89,1.33,4.07-3.85,13.35-9.75,26.89-1.33l4.05,2.51c13.04,8.19,17.95,11.23,23.98,10.03,1.06-.2,2.14,.23,2.76,1.11s.7,2.06,.15,2.99c-3.37,5.08-8.09,9.12-13.62,11.66-8.37,4.02-22.8,6.91-44.21-1.81-8.24,3.57-17.09,5.5-26.06,5.71Z"/><path class="cls-7" d="M331.66,166.64c0,6.36-5.15,11.51-11.49,11.51s-11.49-5.15-11.49-11.51"/><path class="cls-2" d="M320.18,180.92c-7.87-.03-14.25-6.41-14.25-14.28,0-1.53,1.23-2.76,2.76-2.76s2.74,1.23,2.74,2.76c.03,4.83,3.92,8.72,8.75,8.72s8.72-3.9,8.72-8.72c0-1.53,1.26-2.76,2.76-2.76s2.76,1.23,2.76,2.76c0,7.87-6.38,14.25-14.25,14.28Z"/><path class="cls-2" d="M267.27,221.43c-1.43,0-2.61-1.08-2.74-2.49-6.48-68.01-31.97-121.85-71.83-151.6-1.21-.9-1.46-2.64-.55-3.85,.9-1.23,2.64-1.48,3.87-.58,41.09,30.71,67.38,85.93,73.99,155.5,.08,.73-.15,1.46-.63,2.01-.45,.58-1.13,.93-1.86,1.01h-.25Z"/><path class="cls-2" d="M184.11,60.96c-.5,0-.98-.13-1.43-.4-9.93-6.11-20.71-10.76-31.97-13.8-.96-.25-1.71-1.01-1.96-1.96s.03-1.96,.7-2.66c.7-.7,1.71-.98,2.66-.73,11.79,3.19,23.05,8.04,33.45,14.43,1.06,.65,1.53,1.91,1.21,3.12-.33,1.18-1.41,2.01-2.66,2.01Z"/><path class="cls-2" d="M6.06,145.88c-.18,0-.33-.03-.5-.05-1.51-.3-2.49-1.73-2.19-3.24C18.6,62.79,83.45,29.94,139.65,38.77c.98,.15,1.81,.83,2.16,1.73,.35,.93,.18,1.96-.43,2.74-.63,.78-1.61,1.16-2.59,1.01C85.23,35.82,23.35,67.27,8.78,143.65c-.25,1.28-1.38,2.24-2.71,2.24Z"/><path class="cls-1" d="M35.59,115.09c-1.01,0-1.91-.53-2.41-1.41-.48-.85-.48-1.91,.03-2.76,33.08-56.45,81.76-55.72,83.82-55.67,1.51,.05,2.69,1.33,2.66,2.84-.05,1.53-1.31,2.74-2.81,2.69-.5,0-47.55-.58-78.92,52.96-.48,.83-1.38,1.36-2.36,1.36Z"/><path class="cls-2" d="M116.75,327.09c-12.57,0-25.03-2.14-36.87-6.36C53.51,311.31-6.96,277.13,.66,163.8c.08-.98,.65-1.83,1.53-2.29,.88-.43,1.94-.35,2.76,.2,.8,.53,1.28,1.48,1.21,2.46-7.36,109.56,50.39,142.33,75.58,151.35,39.76,14.23,85.65,2.61,106.74-27.02,.88-1.23,2.59-1.51,3.85-.63,1.23,.88,1.51,2.61,.63,3.85-16.04,22.54-45.42,35.36-76.2,35.36Z"/><path class="cls-2" d="M229.97,211.18c.48-.9,.4-2.01-.2-2.87-1.11-1.58-28.12-38.53-97.42-21.82-.96,.25-1.71,.98-2.01,1.91-.28,.96-.03,1.99,.65,2.69,.68,.7,1.68,1.01,2.64,.78,34.28-8.27,57.38-2.49,70.73,3.82,8.09,3.59,15.26,9,20.91,15.81,.53,.73,1.36,1.18,2.26,1.16,1.01,0,1.96-.55,2.44-1.48Z"/><path class="cls-9" d="M268.45,252.6l4.8,21.97c.53,2.41-.13,4.95-1.76,6.81-1.63,1.83-4.07,2.81-6.53,2.56l-12.97-1.21c-2.29-.23-4.37-1.46-5.68-3.37-1.31-1.94-1.68-4.35-1.01-6.56l6.13-20.81c1.18-3.95,4.9-6.53,8.97-6.28,3.92,.25,7.21,3.07,8.04,6.89Z"/><path class="cls-3" d="M259.86,248.45c-2.66,0-5.03,1.76-5.76,4.32l-6.16,20.81c-.43,1.43-.18,2.99,.65,4.22,.83,1.23,2.19,2.04,3.67,2.19l12.97,1.21c1.58,.15,3.14-.48,4.2-1.66,1.06-1.21,1.48-2.84,1.13-4.4l-4.8-21.94c-.58-2.64-2.84-4.55-5.5-4.73-.15-.03-.28-.03-.4-.03Zm4.85,38.25l-12.97-1.23c-3.12-.28-5.96-1.96-7.72-4.57s-2.26-5.86-1.38-8.87l6.16-20.81c1.51-5.08,6.23-8.47,11.49-8.27,5.28,.18,9.73,3.92,10.86,9.07l4.8,21.94c.68,3.12-.08,6.36-2.06,8.85-1.99,2.49-4.98,3.92-8.17,3.95-.33,0-.65-.03-1.01-.05Z"/><path class="cls-2" d="M221.33,249.83h-.2c-1.88-.15-46.8-3.64-62.38-28.07-6.26-9.85-6.86-21.61-1.81-34.99,.53-1.41,2.14-2.14,3.54-1.58,1.43,.53,2.16,2.14,1.61,3.54-4.4,11.66-3.97,21.77,1.31,30.03,14.1,22.14,57.71,25.51,58.13,25.56,1.48,.1,2.61,1.36,2.56,2.84-.05,1.48-1.26,2.66-2.76,2.66Z"/><path class="cls-1" d="M230.15,204.59h0c7.54,1.58,12.39,9.02,10.81,16.59l-4.17,19.96c-1.58,7.57-9,12.42-16.56,10.83-7.57-1.58-12.39-9-10.81-16.56l4.17-19.96c1.58-7.57,9-12.44,16.56-10.86Z"/><path class="cls-3" d="M227.23,207.06c-5.3,.03-9.88,3.74-10.96,8.95l-4.17,19.96c-.6,2.92-.03,5.96,1.61,8.47,1.61,2.49,4.17,4.22,7.09,4.85,2.92,.6,5.96,.03,8.44-1.61,2.49-1.63,4.25-4.17,4.85-7.11l4.17-19.93c.68-3.32-.15-6.79-2.29-9.4-2.14-2.64-5.35-4.17-8.75-4.17Zm-7.57,47.63h0c-9.05-1.91-14.85-10.78-12.97-19.86l4.17-19.96c1.23-5.86,5.48-10.63,11.16-12.49,5.71-1.88,11.94-.58,16.41,3.42,4.45,4,6.43,10.08,5.2,15.96l-4.15,19.93c-1.63,7.77-8.47,13.35-16.39,13.35-1.16,0-2.31-.13-3.44-.35Z"/><path class="cls-4" d="M258.5,218.04s25.79-.1,19.35,24.1c-6.01,22.65-42.9,7.51-42.9,7.51,0,0,2.89-11.66,6.13-29.71,3.27-18.07,22.44-15.51,26.19-1.28"/><path class="cls-3" d="M238.19,247.92c5.71,1.99,21.09,6.56,30.39,1.94,3.37-1.66,5.81-4.75,6.64-8.44,1.61-6.13,1.11-10.93-1.51-14.38-4.83-6.26-15.18-6.21-15.18-6.23h-.03c-1.51,0-2.76-1.23-2.76-2.76s1.23-2.76,2.76-2.76c1.53,.03,3.04,.18,4.57,.43-2.04-3.49-5.76-5.68-9.78-5.73-4.8,.18-8.34,4.1-9.5,10.46-2.36,13.25-4.6,23.17-5.6,27.5Zm20.23,9.42c-8.39-.3-16.69-2.04-24.53-5.13-1.26-.5-1.96-1.88-1.63-3.22,.05-.13,2.92-11.81,6.11-29.56,1.94-10.71,8.87-14.78,14.7-15,7.97-.03,14.9,5.4,16.76,13.17,3.22,1.26,6.06,3.34,8.22,6.06,3.74,4.85,4.57,11.28,2.49,19.18-1.23,5.2-4.73,9.6-9.53,11.96-3.95,1.81-8.24,2.66-12.59,2.54Z"/><path class="cls-8" d="M3.42,164s.79-8.94,2.92-22.24"/><path class="cls-8" d="M139.04,41.48s28.72,3.33,55.95,24.16"/><path class="cls-8" d="M183.71,271.53s-2.89-10.9-3.3-17.5"/><path class="cls-8" d="M296.82,15.99s10.59-7.46,16.32-9.43"/><path class="cls-8" d="M379.07,23.28s4.74,5.27,7.06,10"/><line class="cls-8" x1="291.59" y1="126.53" x2="303.58" y2="126.53"/><path class="cls-8" d="M279.14,198.99s9.1,3.19,17.38,2.63"/><circle class="cls-8" cx="385.62" cy="84.07" r="11.62"/><path class="cls-8" d="M365.55,247.12l13.6-8.93s14.66-11.27,17.68-13.65"/><path class="cls-8" d="M446.67,209.96s3.32,4.93,5.64,10.44"/><path class="cls-8" d="M225.79,394.57s3.71,7.29,8.91,15.05"/><path class="cls-8" d="M412.36,399.07s3.69-7.2,4.85-10.31"/></svg>